%TF.GenerationSoftware,KiCad,Pcbnew,5.1.9-73d0e3b20d~88~ubuntu20.10.1*%
%TF.CreationDate,2021-06-02T15:00:00-07:00*%
%TF.ProjectId,72mm_id_4_row_168_led,37326d6d-5f69-4645-9f34-5f726f775f31,rev?*%
%TF.SameCoordinates,Original*%
%TF.FileFunction,Copper,L1,Top*%
%TF.FilePolarity,Positive*%
%FSLAX46Y46*%
G04 Gerber Fmt 4.6, Leading zero omitted, Abs format (unit mm)*
G04 Created by KiCad (PCBNEW 5.1.9-73d0e3b20d~88~ubuntu20.10.1) date 2021-06-02 15:00:00*
%MOMM*%
%LPD*%
G01*
G04 APERTURE LIST*
%TA.AperFunction,ComponentPad*%
%ADD10C,1.800000*%
%TD*%
%TA.AperFunction,ComponentPad*%
%ADD11C,0.100000*%
%TD*%
%TA.AperFunction,ComponentPad*%
%ADD12R,1.800000X1.800000*%
%TD*%
%TA.AperFunction,ComponentPad*%
%ADD13C,1.600000*%
%TD*%
%TA.AperFunction,Conductor*%
%ADD14C,0.500000*%
%TD*%
G04 APERTURE END LIST*
D10*
%TO.P,D1,2*%
%TO.N,+12V*%
X141058043Y-104179751D03*
%TA.AperFunction,ComponentPad*%
D11*
%TO.P,D1,1*%
%TO.N,Net-(D1-Pad1)*%
G36*
X137542812Y-104715243D02*
G01*
X137730963Y-102925104D01*
X139521102Y-103113255D01*
X139332951Y-104903394D01*
X137542812Y-104715243D01*
G37*
%TD.AperFunction*%
%TD*%
D10*
%TO.P,D2,2*%
%TO.N,Net-(D1-Pad1)*%
X139380507Y-112346312D03*
%TA.AperFunction,ComponentPad*%
D11*
%TO.P,D2,1*%
%TO.N,Net-(D2-Pad1)*%
G36*
X135827684Y-112201228D02*
G01*
X136353953Y-110479879D01*
X138075302Y-111006148D01*
X137549033Y-112727497D01*
X135827684Y-112201228D01*
G37*
%TD.AperFunction*%
%TD*%
D10*
%TO.P,D3,2*%
%TO.N,Net-(D2-Pad1)*%
X136084767Y-120027708D03*
%TA.AperFunction,ComponentPad*%
D11*
%TO.P,D3,1*%
%TO.N,Net-(D3-Pad1)*%
G36*
X132639747Y-119147121D02*
G01*
X133512404Y-117572806D01*
X135086719Y-118445463D01*
X134214062Y-120019778D01*
X132639747Y-119147121D01*
G37*
%TD.AperFunction*%
%TD*%
D10*
%TO.P,D4,2*%
%TO.N,Net-(D3-Pad1)*%
X131308481Y-126888195D03*
%TA.AperFunction,ComponentPad*%
D11*
%TO.P,D4,1*%
%TO.N,Net-(D4-Pad1)*%
G36*
X128121827Y-125310590D02*
G01*
X129302734Y-123952113D01*
X130661211Y-125133020D01*
X129480304Y-126491497D01*
X128121827Y-125310590D01*
G37*
%TD.AperFunction*%
%TD*%
D10*
%TO.P,D5,2*%
%TO.N,Net-(D4-Pad1)*%
X125265890Y-132631774D03*
%TA.AperFunction,ComponentPad*%
D11*
%TO.P,D5,1*%
%TO.N,Net-(D5-Pad1)*%
G36*
X122438805Y-130475112D02*
G01*
X123857224Y-129366921D01*
X124965415Y-130785340D01*
X123546996Y-131893531D01*
X122438805Y-130475112D01*
G37*
%TD.AperFunction*%
%TD*%
D10*
%TO.P,D6,2*%
%TO.N,Net-(D5-Pad1)*%
X118172731Y-137053468D03*
%TA.AperFunction,ComponentPad*%
D11*
%TO.P,D6,1*%
%TO.N,Net-(D6-Pad1)*%
G36*
X115855820Y-134356151D02*
G01*
X117473650Y-133567083D01*
X118262718Y-135184913D01*
X116644888Y-135973981D01*
X115855820Y-134356151D01*
G37*
%TD.AperFunction*%
%TD*%
D10*
%TO.P,D7,2*%
%TO.N,Net-(D6-Pad1)*%
X110354700Y-139949726D03*
%TA.AperFunction,ComponentPad*%
D11*
%TO.P,D7,1*%
%TO.N,Net-(D7-Pad1)*%
G36*
X108595030Y-136859878D02*
G01*
X110333696Y-136394004D01*
X110799570Y-138132670D01*
X109060904Y-138598544D01*
X108595030Y-136859878D01*
G37*
%TD.AperFunction*%
%TD*%
D10*
%TO.P,D8,2*%
%TO.N,+12V*%
X102092467Y-141217260D03*
%TA.AperFunction,ComponentPad*%
D11*
%TO.P,D8,1*%
%TO.N,Net-(D8-Pad1)*%
G36*
X101013664Y-137829076D02*
G01*
X102811197Y-137734871D01*
X102905402Y-139532404D01*
X101107869Y-139626609D01*
X101013664Y-137829076D01*
G37*
%TD.AperFunction*%
%TD*%
D10*
%TO.P,D9,2*%
%TO.N,Net-(D8-Pad1)*%
X93744228Y-140793364D03*
%TA.AperFunction,ComponentPad*%
D11*
%TO.P,D9,1*%
%TO.N,Net-(D10-Pad2)*%
G36*
X93393444Y-137254925D02*
G01*
X95171283Y-137536508D01*
X94889700Y-139314347D01*
X93111861Y-139032764D01*
X93393444Y-137254925D01*
G37*
%TD.AperFunction*%
%TD*%
D10*
%TO.P,D10,2*%
%TO.N,Net-(D10-Pad2)*%
X85673434Y-138703410D03*
%TA.AperFunction,ComponentPad*%
D11*
%TO.P,D10,1*%
%TO.N,Net-(D10-Pad1)*%
G36*
X86004261Y-135163049D02*
G01*
X87695707Y-135778685D01*
X87080071Y-137470131D01*
X85388625Y-136854495D01*
X86004261Y-135163049D01*
G37*
%TD.AperFunction*%
%TD*%
D10*
%TO.P,D11,2*%
%TO.N,Net-(D10-Pad1)*%
X78168403Y-135023021D03*
%TA.AperFunction,ComponentPad*%
D11*
%TO.P,D11,1*%
%TO.N,Net-(D11-Pad1)*%
G36*
X79228081Y-131628808D02*
G01*
X80754568Y-132582663D01*
X79800713Y-134109150D01*
X78274226Y-133155295D01*
X79228081Y-131628808D01*
G37*
%TD.AperFunction*%
%TD*%
D10*
%TO.P,D12,2*%
%TO.N,Net-(D11-Pad1)*%
X71559084Y-129905562D03*
%TA.AperFunction,ComponentPad*%
D11*
%TO.P,D12,1*%
%TO.N,Net-(D12-Pad1)*%
G36*
X73301303Y-126805840D02*
G01*
X74596114Y-128056225D01*
X73345729Y-129351036D01*
X72050918Y-128100651D01*
X73301303Y-126805840D01*
G37*
%TD.AperFunction*%
%TD*%
D10*
%TO.P,D13,2*%
%TO.N,Net-(D12-Pad1)*%
X66129177Y-123579442D03*
%TA.AperFunction,ComponentPad*%
D11*
%TO.P,D13,1*%
%TO.N,Net-(D13-Pad1)*%
G36*
X68430841Y-120869102D02*
G01*
X69463279Y-122343576D01*
X67988805Y-123376014D01*
X66956367Y-121901540D01*
X68430841Y-120869102D01*
G37*
%TD.AperFunction*%
%TD*%
D10*
%TO.P,D14,2*%
%TO.N,Net-(D13-Pad1)*%
X62072659Y-116270229D03*
%TA.AperFunction,ComponentPad*%
D11*
%TO.P,D14,1*%
%TO.N,Net-(D14-Pad1)*%
G36*
X64887537Y-114097659D02*
G01*
X65590853Y-115754567D01*
X63933945Y-116457883D01*
X63230629Y-114800975D01*
X64887537Y-114097659D01*
G37*
%TD.AperFunction*%
%TD*%
D10*
%TO.P,D15,2*%
%TO.N,+12V*%
X59576553Y-108316048D03*
%TA.AperFunction,ComponentPad*%
D11*
%TO.P,D15,1*%
%TO.N,Net-(D15-Pad1)*%
G36*
X62754259Y-106720499D02*
G01*
X63128500Y-108481164D01*
X61367835Y-108855405D01*
X60993594Y-107094740D01*
X62754259Y-106720499D01*
G37*
%TD.AperFunction*%
%TD*%
D10*
%TO.P,D16,2*%
%TO.N,Net-(D15-Pad1)*%
X58730000Y-100000000D03*
D12*
%TO.P,D16,1*%
%TO.N,Net-(D16-Pad1)*%
X61270000Y-100000000D03*
%TD*%
D10*
%TO.P,D17,2*%
%TO.N,Net-(D16-Pad1)*%
X59576553Y-91684052D03*
%TA.AperFunction,ComponentPad*%
D11*
%TO.P,D17,1*%
%TO.N,Net-(D17-Pad1)*%
G36*
X63128500Y-91518936D02*
G01*
X62754259Y-93279601D01*
X60993594Y-92905360D01*
X61367835Y-91144695D01*
X63128500Y-91518936D01*
G37*
%TD.AperFunction*%
%TD*%
D10*
%TO.P,D18,2*%
%TO.N,Net-(D17-Pad1)*%
X62072659Y-83729571D03*
%TA.AperFunction,ComponentPad*%
D11*
%TO.P,D18,1*%
%TO.N,Net-(D18-Pad1)*%
G36*
X65590853Y-84245233D02*
G01*
X64887537Y-85902141D01*
X63230629Y-85198825D01*
X63933945Y-83541917D01*
X65590853Y-84245233D01*
G37*
%TD.AperFunction*%
%TD*%
D10*
%TO.P,D19,2*%
%TO.N,Net-(D18-Pad1)*%
X66129177Y-76420858D03*
%TA.AperFunction,ComponentPad*%
D11*
%TO.P,D19,1*%
%TO.N,Net-(D19-Pad1)*%
G36*
X69463279Y-77656724D02*
G01*
X68430841Y-79131198D01*
X66956367Y-78098760D01*
X67988805Y-76624286D01*
X69463279Y-77656724D01*
G37*
%TD.AperFunction*%
%TD*%
D10*
%TO.P,D20,2*%
%TO.N,Net-(D19-Pad1)*%
X71559084Y-70094738D03*
%TA.AperFunction,ComponentPad*%
D11*
%TO.P,D20,1*%
%TO.N,Net-(D20-Pad1)*%
G36*
X74596114Y-71944075D02*
G01*
X73301303Y-73194460D01*
X72050918Y-71899649D01*
X73345729Y-70649264D01*
X74596114Y-71944075D01*
G37*
%TD.AperFunction*%
%TD*%
D10*
%TO.P,D21,2*%
%TO.N,Net-(D20-Pad1)*%
X78168403Y-64977179D03*
%TA.AperFunction,ComponentPad*%
D11*
%TO.P,D21,1*%
%TO.N,Net-(D21-Pad1)*%
G36*
X80754568Y-67417537D02*
G01*
X79228081Y-68371392D01*
X78274226Y-66844905D01*
X79800713Y-65891050D01*
X80754568Y-67417537D01*
G37*
%TD.AperFunction*%
%TD*%
D10*
%TO.P,D22,2*%
%TO.N,+12V*%
X85673434Y-61296490D03*
%TA.AperFunction,ComponentPad*%
D11*
%TO.P,D22,1*%
%TO.N,Net-(D22-Pad1)*%
G36*
X87695707Y-64221215D02*
G01*
X86004261Y-64836851D01*
X85388625Y-63145405D01*
X87080071Y-62529769D01*
X87695707Y-64221215D01*
G37*
%TD.AperFunction*%
%TD*%
D10*
%TO.P,D23,2*%
%TO.N,Net-(D22-Pad1)*%
X93744228Y-59206936D03*
%TA.AperFunction,ComponentPad*%
D11*
%TO.P,D23,1*%
%TO.N,Net-(D23-Pad1)*%
G36*
X95171283Y-62463792D02*
G01*
X93393444Y-62745375D01*
X93111861Y-60967536D01*
X94889700Y-60685953D01*
X95171283Y-62463792D01*
G37*
%TD.AperFunction*%
%TD*%
D10*
%TO.P,D24,2*%
%TO.N,Net-(D23-Pad1)*%
X102092467Y-58783040D03*
%TA.AperFunction,ComponentPad*%
D11*
%TO.P,D24,1*%
%TO.N,Net-(D24-Pad1)*%
G36*
X102811197Y-62265429D02*
G01*
X101013664Y-62171224D01*
X101107869Y-60373691D01*
X102905402Y-60467896D01*
X102811197Y-62265429D01*
G37*
%TD.AperFunction*%
%TD*%
D10*
%TO.P,D25,2*%
%TO.N,Net-(D24-Pad1)*%
X110354700Y-60050174D03*
%TA.AperFunction,ComponentPad*%
D11*
%TO.P,D25,1*%
%TO.N,Net-(D25-Pad1)*%
G36*
X110333696Y-63605896D02*
G01*
X108595030Y-63140022D01*
X109060904Y-61401356D01*
X110799570Y-61867230D01*
X110333696Y-63605896D01*
G37*
%TD.AperFunction*%
%TD*%
D10*
%TO.P,D26,2*%
%TO.N,Net-(D25-Pad1)*%
X118172731Y-62946332D03*
%TA.AperFunction,ComponentPad*%
D11*
%TO.P,D26,1*%
%TO.N,Net-(D26-Pad1)*%
G36*
X117473650Y-66432717D02*
G01*
X115855820Y-65643649D01*
X116644888Y-64025819D01*
X118262718Y-64814887D01*
X117473650Y-66432717D01*
G37*
%TD.AperFunction*%
%TD*%
D10*
%TO.P,D27,2*%
%TO.N,Net-(D26-Pad1)*%
X125265890Y-67368226D03*
%TA.AperFunction,ComponentPad*%
D11*
%TO.P,D27,1*%
%TO.N,Net-(D27-Pad1)*%
G36*
X123857224Y-70633079D02*
G01*
X122438805Y-69524888D01*
X123546996Y-68106469D01*
X124965415Y-69214660D01*
X123857224Y-70633079D01*
G37*
%TD.AperFunction*%
%TD*%
D10*
%TO.P,D28,2*%
%TO.N,Net-(D27-Pad1)*%
X131308481Y-73111905D03*
%TA.AperFunction,ComponentPad*%
D11*
%TO.P,D28,1*%
%TO.N,Net-(D28-Pad1)*%
G36*
X129302734Y-76047987D02*
G01*
X128121827Y-74689510D01*
X129480304Y-73508603D01*
X130661211Y-74867080D01*
X129302734Y-76047987D01*
G37*
%TD.AperFunction*%
%TD*%
D10*
%TO.P,D29,2*%
%TO.N,+12V*%
X136084767Y-79972192D03*
%TA.AperFunction,ComponentPad*%
D11*
%TO.P,D29,1*%
%TO.N,Net-(D29-Pad1)*%
G36*
X133512404Y-82427094D02*
G01*
X132639747Y-80852779D01*
X134214062Y-79980122D01*
X135086719Y-81554437D01*
X133512404Y-82427094D01*
G37*
%TD.AperFunction*%
%TD*%
D10*
%TO.P,D30,2*%
%TO.N,Net-(D29-Pad1)*%
X139380507Y-87654188D03*
%TA.AperFunction,ComponentPad*%
D11*
%TO.P,D30,1*%
%TO.N,Net-(D30-Pad1)*%
G36*
X136353953Y-89520621D02*
G01*
X135827684Y-87799272D01*
X137549033Y-87273003D01*
X138075302Y-88994352D01*
X136353953Y-89520621D01*
G37*
%TD.AperFunction*%
%TD*%
D10*
%TO.P,D31,2*%
%TO.N,Net-(D30-Pad1)*%
X141058043Y-95820549D03*
%TA.AperFunction,ComponentPad*%
D11*
%TO.P,D31,1*%
%TO.N,Net-(D31-Pad1)*%
G36*
X137730963Y-97075196D02*
G01*
X137542812Y-95285057D01*
X139332951Y-95096906D01*
X139521102Y-96887045D01*
X137730963Y-97075196D01*
G37*
%TD.AperFunction*%
%TD*%
D10*
%TO.P,D32,2*%
%TO.N,Net-(D31-Pad1)*%
X150651167Y-104202688D03*
%TA.AperFunction,ComponentPad*%
D11*
%TO.P,D32,1*%
%TO.N,Net-(D32-Pad1)*%
G36*
X147145818Y-104799447D02*
G01*
X147302698Y-103006297D01*
X149095848Y-103163177D01*
X148938968Y-104956327D01*
X147145818Y-104799447D01*
G37*
%TD.AperFunction*%
%TD*%
D10*
%TO.P,D33,2*%
%TO.N,Net-(D32-Pad1)*%
X149271276Y-112472241D03*
%TA.AperFunction,ComponentPad*%
D11*
%TO.P,D33,1*%
%TO.N,Net-(D33-Pad1)*%
G36*
X145715728Y-112513295D02*
G01*
X146151188Y-110766763D01*
X147897720Y-111202223D01*
X147462260Y-112948755D01*
X145715728Y-112513295D01*
G37*
%TD.AperFunction*%
%TD*%
D10*
%TO.P,D34,2*%
%TO.N,Net-(D33-Pad1)*%
X146542203Y-120422556D03*
%TA.AperFunction,ComponentPad*%
D11*
%TO.P,D34,1*%
%TO.N,Net-(D34-Pad1)*%
G36*
X143033543Y-119845572D02*
G01*
X143765669Y-118201190D01*
X145410051Y-118933316D01*
X144677925Y-120577698D01*
X143033543Y-119845572D01*
G37*
%TD.AperFunction*%
%TD*%
D10*
%TO.P,D35,2*%
%TO.N,Net-(D34-Pad1)*%
X142551112Y-127795692D03*
%TA.AperFunction,ComponentPad*%
D11*
%TO.P,D35,1*%
%TO.N,Net-(D35-Pad1)*%
G36*
X139175909Y-126676936D02*
G01*
X140156260Y-125167329D01*
X141665867Y-126147680D01*
X140685516Y-127657287D01*
X139175909Y-126676936D01*
G37*
%TD.AperFunction*%
%TD*%
D10*
%TO.P,D36,2*%
%TO.N,+12V*%
X137387819Y-134429138D03*
%TA.AperFunction,ComponentPad*%
D11*
%TO.P,D36,1*%
%TO.N,Net-(D36-Pad1)*%
G36*
X134258164Y-132741282D02*
G01*
X135485761Y-131424845D01*
X136802198Y-132652442D01*
X135574601Y-133968879D01*
X134258164Y-132741282D01*
G37*
%TD.AperFunction*%
%TD*%
D10*
%TO.P,D37,2*%
%TO.N,Net-(D36-Pad1)*%
X131219890Y-140106774D03*
%TA.AperFunction,ComponentPad*%
D11*
%TO.P,D37,1*%
%TO.N,Net-(D37-Pad1)*%
G36*
X128392805Y-137950112D02*
G01*
X129811224Y-136841921D01*
X130919415Y-138260340D01*
X129500996Y-139368531D01*
X128392805Y-137950112D01*
G37*
%TD.AperFunction*%
%TD*%
D10*
%TO.P,D38,2*%
%TO.N,Net-(D37-Pad1)*%
X124182229Y-144704343D03*
%TA.AperFunction,ComponentPad*%
D11*
%TO.P,D38,1*%
%TO.N,Net-(D38-Pad1)*%
G36*
X121772594Y-142089529D02*
G01*
X123361899Y-141244480D01*
X124206948Y-142833785D01*
X122617643Y-143678834D01*
X121772594Y-142089529D01*
G37*
%TD.AperFunction*%
%TD*%
D10*
%TO.P,D39,2*%
%TO.N,Net-(D38-Pad1)*%
X116504472Y-148070809D03*
%TA.AperFunction,ComponentPad*%
D11*
%TO.P,D39,1*%
%TO.N,Net-(D39-Pad1)*%
G36*
X114533550Y-145111236D02*
G01*
X116235483Y-144525213D01*
X116821506Y-146227146D01*
X115119573Y-146813169D01*
X114533550Y-145111236D01*
G37*
%TD.AperFunction*%
%TD*%
D10*
%TO.P,D40,2*%
%TO.N,Net-(D39-Pad1)*%
X108355672Y-150134364D03*
%TA.AperFunction,ComponentPad*%
D11*
%TO.P,D40,1*%
%TO.N,Net-(D40-Pad1)*%
G36*
X106928617Y-146877508D02*
G01*
X108706456Y-146595925D01*
X108988039Y-148373764D01*
X107210200Y-148655347D01*
X106928617Y-146877508D01*
G37*
%TD.AperFunction*%
%TD*%
D10*
%TO.P,D41,2*%
%TO.N,Net-(D40-Pad1)*%
X100000000Y-150826000D03*
D12*
%TO.P,D41,1*%
%TO.N,Net-(D41-Pad1)*%
X100000000Y-148286000D03*
%TD*%
D10*
%TO.P,D42,2*%
%TO.N,Net-(D41-Pad1)*%
X91644728Y-150134364D03*
%TA.AperFunction,ComponentPad*%
D11*
%TO.P,D42,1*%
%TO.N,Net-(D42-Pad1)*%
G36*
X91293944Y-146595925D02*
G01*
X93071783Y-146877508D01*
X92790200Y-148655347D01*
X91012361Y-148373764D01*
X91293944Y-146595925D01*
G37*
%TD.AperFunction*%
%TD*%
D10*
%TO.P,D43,2*%
%TO.N,+12V*%
X83495828Y-148070809D03*
%TA.AperFunction,ComponentPad*%
D11*
%TO.P,D43,1*%
%TO.N,Net-(D43-Pad1)*%
G36*
X83764817Y-144525213D02*
G01*
X85466750Y-145111236D01*
X84880727Y-146813169D01*
X83178794Y-146227146D01*
X83764817Y-144525213D01*
G37*
%TD.AperFunction*%
%TD*%
D10*
%TO.P,D44,2*%
%TO.N,Net-(D43-Pad1)*%
X75817971Y-144704343D03*
%TA.AperFunction,ComponentPad*%
D11*
%TO.P,D44,1*%
%TO.N,Net-(D44-Pad1)*%
G36*
X76638301Y-141244480D02*
G01*
X78227606Y-142089529D01*
X77382557Y-143678834D01*
X75793252Y-142833785D01*
X76638301Y-141244480D01*
G37*
%TD.AperFunction*%
%TD*%
D10*
%TO.P,D45,2*%
%TO.N,Net-(D44-Pad1)*%
X68780410Y-140106774D03*
%TA.AperFunction,ComponentPad*%
D11*
%TO.P,D45,1*%
%TO.N,Net-(D45-Pad1)*%
G36*
X70189076Y-136841921D02*
G01*
X71607495Y-137950112D01*
X70499304Y-139368531D01*
X69080885Y-138260340D01*
X70189076Y-136841921D01*
G37*
%TD.AperFunction*%
%TD*%
D10*
%TO.P,D46,2*%
%TO.N,Net-(D45-Pad1)*%
X62611981Y-134429138D03*
%TA.AperFunction,ComponentPad*%
D11*
%TO.P,D46,1*%
%TO.N,Net-(D46-Pad1)*%
G36*
X64514039Y-131424845D02*
G01*
X65741636Y-132741282D01*
X64425199Y-133968879D01*
X63197602Y-132652442D01*
X64514039Y-131424845D01*
G37*
%TD.AperFunction*%
%TD*%
D10*
%TO.P,D47,2*%
%TO.N,Net-(D46-Pad1)*%
X57448688Y-127795692D03*
%TA.AperFunction,ComponentPad*%
D11*
%TO.P,D47,1*%
%TO.N,Net-(D47-Pad1)*%
G36*
X59843540Y-125167329D02*
G01*
X60823891Y-126676936D01*
X59314284Y-127657287D01*
X58333933Y-126147680D01*
X59843540Y-125167329D01*
G37*
%TD.AperFunction*%
%TD*%
D10*
%TO.P,D48,2*%
%TO.N,Net-(D47-Pad1)*%
X53458097Y-120422556D03*
%TA.AperFunction,ComponentPad*%
D11*
%TO.P,D48,1*%
%TO.N,Net-(D48-Pad1)*%
G36*
X56234631Y-118201190D02*
G01*
X56966757Y-119845572D01*
X55322375Y-120577698D01*
X54590249Y-118933316D01*
X56234631Y-118201190D01*
G37*
%TD.AperFunction*%
%TD*%
D10*
%TO.P,D49,2*%
%TO.N,Net-(D48-Pad1)*%
X50728524Y-112472241D03*
%TA.AperFunction,ComponentPad*%
D11*
%TO.P,D49,1*%
%TO.N,Net-(D49-Pad1)*%
G36*
X53848612Y-110766763D02*
G01*
X54284072Y-112513295D01*
X52537540Y-112948755D01*
X52102080Y-111202223D01*
X53848612Y-110766763D01*
G37*
%TD.AperFunction*%
%TD*%
D10*
%TO.P,D50,2*%
%TO.N,+12V*%
X49348533Y-104202688D03*
%TA.AperFunction,ComponentPad*%
D11*
%TO.P,D50,1*%
%TO.N,Net-(D50-Pad1)*%
G36*
X52697002Y-103006297D02*
G01*
X52853882Y-104799447D01*
X51060732Y-104956327D01*
X50903852Y-103163177D01*
X52697002Y-103006297D01*
G37*
%TD.AperFunction*%
%TD*%
D10*
%TO.P,D51,2*%
%TO.N,Net-(D50-Pad1)*%
X49348533Y-95797012D03*
%TA.AperFunction,ComponentPad*%
D11*
%TO.P,D51,1*%
%TO.N,Net-(D51-Pad1)*%
G36*
X52853882Y-95200253D02*
G01*
X52697002Y-96993403D01*
X50903852Y-96836523D01*
X51060732Y-95043373D01*
X52853882Y-95200253D01*
G37*
%TD.AperFunction*%
%TD*%
D10*
%TO.P,D52,2*%
%TO.N,Net-(D51-Pad1)*%
X50728524Y-87527559D03*
%TA.AperFunction,ComponentPad*%
D11*
%TO.P,D52,1*%
%TO.N,Net-(D52-Pad1)*%
G36*
X54284072Y-87486505D02*
G01*
X53848612Y-89233037D01*
X52102080Y-88797577D01*
X52537540Y-87051045D01*
X54284072Y-87486505D01*
G37*
%TD.AperFunction*%
%TD*%
D10*
%TO.P,D53,2*%
%TO.N,Net-(D52-Pad1)*%
X53458097Y-79577244D03*
%TA.AperFunction,ComponentPad*%
D11*
%TO.P,D53,1*%
%TO.N,Net-(D53-Pad1)*%
G36*
X56966757Y-80154228D02*
G01*
X56234631Y-81798610D01*
X54590249Y-81066484D01*
X55322375Y-79422102D01*
X56966757Y-80154228D01*
G37*
%TD.AperFunction*%
%TD*%
D10*
%TO.P,D54,2*%
%TO.N,Net-(D53-Pad1)*%
X57448688Y-72204008D03*
%TA.AperFunction,ComponentPad*%
D11*
%TO.P,D54,1*%
%TO.N,Net-(D54-Pad1)*%
G36*
X60823891Y-73322764D02*
G01*
X59843540Y-74832371D01*
X58333933Y-73852020D01*
X59314284Y-72342413D01*
X60823891Y-73322764D01*
G37*
%TD.AperFunction*%
%TD*%
D10*
%TO.P,D55,2*%
%TO.N,Net-(D54-Pad1)*%
X62611981Y-65570762D03*
%TA.AperFunction,ComponentPad*%
D11*
%TO.P,D55,1*%
%TO.N,Net-(D55-Pad1)*%
G36*
X65741636Y-67258618D02*
G01*
X64514039Y-68575055D01*
X63197602Y-67347458D01*
X64425199Y-66031021D01*
X65741636Y-67258618D01*
G37*
%TD.AperFunction*%
%TD*%
D10*
%TO.P,D56,2*%
%TO.N,Net-(D55-Pad1)*%
X68780410Y-59892926D03*
%TA.AperFunction,ComponentPad*%
D11*
%TO.P,D56,1*%
%TO.N,Net-(D56-Pad1)*%
G36*
X71607495Y-62049588D02*
G01*
X70189076Y-63157779D01*
X69080885Y-61739360D01*
X70499304Y-60631169D01*
X71607495Y-62049588D01*
G37*
%TD.AperFunction*%
%TD*%
D10*
%TO.P,D57,2*%
%TO.N,+12V*%
X75817971Y-55295857D03*
%TA.AperFunction,ComponentPad*%
D11*
%TO.P,D57,1*%
%TO.N,Net-(D57-Pad1)*%
G36*
X78227606Y-57910671D02*
G01*
X76638301Y-58755720D01*
X75793252Y-57166415D01*
X77382557Y-56321366D01*
X78227606Y-57910671D01*
G37*
%TD.AperFunction*%
%TD*%
D10*
%TO.P,D58,2*%
%TO.N,Net-(D57-Pad1)*%
X83495828Y-51928691D03*
%TA.AperFunction,ComponentPad*%
D11*
%TO.P,D58,1*%
%TO.N,Net-(D58-Pad1)*%
G36*
X85466750Y-54888264D02*
G01*
X83764817Y-55474287D01*
X83178794Y-53772354D01*
X84880727Y-53186331D01*
X85466750Y-54888264D01*
G37*
%TD.AperFunction*%
%TD*%
D10*
%TO.P,D59,2*%
%TO.N,Net-(D58-Pad1)*%
X91644728Y-49865936D03*
%TA.AperFunction,ComponentPad*%
D11*
%TO.P,D59,1*%
%TO.N,Net-(D59-Pad1)*%
G36*
X93071783Y-53122792D02*
G01*
X91293944Y-53404375D01*
X91012361Y-51626536D01*
X92790200Y-51344953D01*
X93071783Y-53122792D01*
G37*
%TD.AperFunction*%
%TD*%
D10*
%TO.P,D60,2*%
%TO.N,Net-(D59-Pad1)*%
X100000000Y-49174400D03*
D12*
%TO.P,D60,1*%
%TO.N,Net-(D60-Pad1)*%
X100000000Y-51714400D03*
%TD*%
D10*
%TO.P,D61,2*%
%TO.N,Net-(D60-Pad1)*%
X108355672Y-49865936D03*
%TA.AperFunction,ComponentPad*%
D11*
%TO.P,D61,1*%
%TO.N,Net-(D61-Pad1)*%
G36*
X108706456Y-53404375D02*
G01*
X106928617Y-53122792D01*
X107210200Y-51344953D01*
X108988039Y-51626536D01*
X108706456Y-53404375D01*
G37*
%TD.AperFunction*%
%TD*%
D10*
%TO.P,D62,2*%
%TO.N,Net-(D61-Pad1)*%
X116504472Y-51928691D03*
%TA.AperFunction,ComponentPad*%
D11*
%TO.P,D62,1*%
%TO.N,Net-(D62-Pad1)*%
G36*
X116235483Y-55474287D02*
G01*
X114533550Y-54888264D01*
X115119573Y-53186331D01*
X116821506Y-53772354D01*
X116235483Y-55474287D01*
G37*
%TD.AperFunction*%
%TD*%
D10*
%TO.P,D63,2*%
%TO.N,Net-(D62-Pad1)*%
X124182229Y-55295857D03*
%TA.AperFunction,ComponentPad*%
D11*
%TO.P,D63,1*%
%TO.N,Net-(D63-Pad1)*%
G36*
X123361899Y-58755720D02*
G01*
X121772594Y-57910671D01*
X122617643Y-56321366D01*
X124206948Y-57166415D01*
X123361899Y-58755720D01*
G37*
%TD.AperFunction*%
%TD*%
D10*
%TO.P,D64,2*%
%TO.N,+12V*%
X131219890Y-59892926D03*
%TA.AperFunction,ComponentPad*%
D11*
%TO.P,D64,1*%
%TO.N,Net-(D64-Pad1)*%
G36*
X129811224Y-63157779D02*
G01*
X128392805Y-62049588D01*
X129500996Y-60631169D01*
X130919415Y-61739360D01*
X129811224Y-63157779D01*
G37*
%TD.AperFunction*%
%TD*%
D10*
%TO.P,D65,2*%
%TO.N,Net-(D64-Pad1)*%
X137387819Y-65570762D03*
%TA.AperFunction,ComponentPad*%
D11*
%TO.P,D65,1*%
%TO.N,Net-(D65-Pad1)*%
G36*
X135485761Y-68575055D02*
G01*
X134258164Y-67258618D01*
X135574601Y-66031021D01*
X136802198Y-67347458D01*
X135485761Y-68575055D01*
G37*
%TD.AperFunction*%
%TD*%
D10*
%TO.P,D66,2*%
%TO.N,Net-(D65-Pad1)*%
X142551112Y-72204008D03*
%TA.AperFunction,ComponentPad*%
D11*
%TO.P,D66,1*%
%TO.N,Net-(D66-Pad1)*%
G36*
X140156260Y-74832371D02*
G01*
X139175909Y-73322764D01*
X140685516Y-72342413D01*
X141665867Y-73852020D01*
X140156260Y-74832371D01*
G37*
%TD.AperFunction*%
%TD*%
D10*
%TO.P,D67,2*%
%TO.N,Net-(D66-Pad1)*%
X146542203Y-79577244D03*
%TA.AperFunction,ComponentPad*%
D11*
%TO.P,D67,1*%
%TO.N,Net-(D67-Pad1)*%
G36*
X143765669Y-81798610D02*
G01*
X143033543Y-80154228D01*
X144677925Y-79422102D01*
X145410051Y-81066484D01*
X143765669Y-81798610D01*
G37*
%TD.AperFunction*%
%TD*%
D10*
%TO.P,D68,2*%
%TO.N,Net-(D67-Pad1)*%
X149271276Y-87527559D03*
%TA.AperFunction,ComponentPad*%
D11*
%TO.P,D68,1*%
%TO.N,Net-(D68-Pad1)*%
G36*
X146151188Y-89233037D02*
G01*
X145715728Y-87486505D01*
X147462260Y-87051045D01*
X147897720Y-88797577D01*
X146151188Y-89233037D01*
G37*
%TD.AperFunction*%
%TD*%
D10*
%TO.P,D69,2*%
%TO.N,Net-(D68-Pad1)*%
X150651167Y-95797012D03*
%TA.AperFunction,ComponentPad*%
D11*
%TO.P,D69,1*%
%TO.N,Net-(D69-Pad1)*%
G36*
X147302698Y-96993403D02*
G01*
X147145818Y-95200253D01*
X148938968Y-95043373D01*
X149095848Y-96836523D01*
X147302698Y-96993403D01*
G37*
%TD.AperFunction*%
%TD*%
D10*
%TO.P,D70,2*%
%TO.N,Net-(D69-Pad1)*%
X160239906Y-104122591D03*
%TA.AperFunction,ComponentPad*%
D11*
%TO.P,D70,1*%
%TO.N,Net-(D70-Pad1)*%
G36*
X156745506Y-104780436D02*
G01*
X156871067Y-102984821D01*
X158666682Y-103110382D01*
X158541121Y-104905997D01*
X156745506Y-104780436D01*
G37*
%TD.AperFunction*%
%TD*%
D10*
%TO.P,D71,2*%
%TO.N,+12V*%
X159117247Y-112291048D03*
%TA.AperFunction,ComponentPad*%
D11*
%TO.P,D71,1*%
%TO.N,Net-(D71-Pad1)*%
G36*
X155565300Y-112456164D02*
G01*
X155939541Y-110695499D01*
X157700206Y-111069740D01*
X157325965Y-112830405D01*
X155565300Y-112456164D01*
G37*
%TD.AperFunction*%
%TD*%
D10*
%TO.P,D72,2*%
%TO.N,Net-(D71-Pad1)*%
X156891410Y-120229366D03*
%TA.AperFunction,ComponentPad*%
D11*
%TO.P,D72,1*%
%TO.N,Net-(D72-Pad1)*%
G36*
X153351049Y-119898539D02*
G01*
X153966685Y-118207093D01*
X155658131Y-118822729D01*
X155042495Y-120514175D01*
X153351049Y-119898539D01*
G37*
%TD.AperFunction*%
%TD*%
D10*
%TO.P,D73,2*%
%TO.N,Net-(D72-Pad1)*%
X153615578Y-127771568D03*
%TA.AperFunction,ComponentPad*%
D11*
%TO.P,D73,1*%
%TO.N,Net-(D73-Pad1)*%
G36*
X150141925Y-127011746D02*
G01*
X150959108Y-125407935D01*
X152562919Y-126225118D01*
X151745736Y-127828929D01*
X150141925Y-127011746D01*
G37*
%TD.AperFunction*%
%TD*%
D10*
%TO.P,D74,2*%
%TO.N,Net-(D73-Pad1)*%
X149332323Y-134816442D03*
%TA.AperFunction,ComponentPad*%
D11*
%TO.P,D74,1*%
%TO.N,Net-(D74-Pad1)*%
G36*
X145998221Y-133580576D02*
G01*
X147030659Y-132106102D01*
X148505133Y-133138540D01*
X147472695Y-134613014D01*
X145998221Y-133580576D01*
G37*
%TD.AperFunction*%
%TD*%
D10*
%TO.P,D75,2*%
%TO.N,Net-(D74-Pad1)*%
X144129819Y-141212138D03*
%TA.AperFunction,ComponentPad*%
D11*
%TO.P,D75,1*%
%TO.N,Net-(D75-Pad1)*%
G36*
X141000164Y-139524282D02*
G01*
X142227761Y-138207845D01*
X143544198Y-139435442D01*
X142316601Y-140751879D01*
X141000164Y-139524282D01*
G37*
%TD.AperFunction*%
%TD*%
D10*
%TO.P,D76,2*%
%TO.N,Net-(D75-Pad1)*%
X138103237Y-146839975D03*
%TA.AperFunction,ComponentPad*%
D11*
%TO.P,D76,1*%
%TO.N,Net-(D76-Pad1)*%
G36*
X135238943Y-144732982D02*
G01*
X136637806Y-143600205D01*
X137770583Y-144999068D01*
X136371720Y-146131845D01*
X135238943Y-144732982D01*
G37*
%TD.AperFunction*%
%TD*%
D10*
%TO.P,D77,2*%
%TO.N,Net-(D76-Pad1)*%
X131367098Y-151594602D03*
%TA.AperFunction,ComponentPad*%
D11*
%TO.P,D77,1*%
%TO.N,Net-(D77-Pad1)*%
G36*
X128823917Y-149109482D02*
G01*
X130366818Y-148182413D01*
X131293887Y-149725314D01*
X129750986Y-150652383D01*
X128823917Y-149109482D01*
G37*
%TD.AperFunction*%
%TD*%
D10*
%TO.P,D78,2*%
%TO.N,+12V*%
X124046229Y-155386041D03*
%TA.AperFunction,ComponentPad*%
D11*
%TO.P,D78,1*%
%TO.N,Net-(D78-Pad1)*%
G36*
X121873659Y-152571163D02*
G01*
X123530567Y-151867847D01*
X124233883Y-153524755D01*
X122576975Y-154228071D01*
X121873659Y-152571163D01*
G37*
%TD.AperFunction*%
%TD*%
D10*
%TO.P,D79,2*%
%TO.N,Net-(D78-Pad1)*%
X116298059Y-158139802D03*
%TA.AperFunction,ComponentPad*%
D11*
%TO.P,D79,1*%
%TO.N,Net-(D79-Pad1)*%
G36*
X114484732Y-155081136D02*
G01*
X116215003Y-154584989D01*
X116711150Y-156315260D01*
X114980879Y-156811407D01*
X114484732Y-155081136D01*
G37*
%TD.AperFunction*%
%TD*%
D10*
%TO.P,D80,2*%
%TO.N,Net-(D79-Pad1)*%
X108225750Y-159818640D03*
%TA.AperFunction,ComponentPad*%
D11*
%TO.P,D80,1*%
%TO.N,Net-(D80-Pad1)*%
G36*
X106855753Y-156537375D02*
G01*
X108638235Y-156286863D01*
X108888747Y-158069345D01*
X107106265Y-158319857D01*
X106855753Y-156537375D01*
G37*
%TD.AperFunction*%
%TD*%
D10*
%TO.P,D81,2*%
%TO.N,Net-(D80-Pad1)*%
X100000000Y-160381000D03*
D12*
%TO.P,D81,1*%
%TO.N,Net-(D81-Pad1)*%
X100000000Y-157841000D03*
%TD*%
D10*
%TO.P,D82,2*%
%TO.N,Net-(D81-Pad1)*%
X91774250Y-159818640D03*
%TA.AperFunction,ComponentPad*%
D11*
%TO.P,D82,1*%
%TO.N,Net-(D82-Pad1)*%
G36*
X91361765Y-156286863D02*
G01*
X93144247Y-156537375D01*
X92893735Y-158319857D01*
X91111253Y-158069345D01*
X91361765Y-156286863D01*
G37*
%TD.AperFunction*%
%TD*%
D10*
%TO.P,D83,2*%
%TO.N,Net-(D82-Pad1)*%
X83701941Y-158139802D03*
%TA.AperFunction,ComponentPad*%
D11*
%TO.P,D83,1*%
%TO.N,Net-(D83-Pad1)*%
G36*
X83784997Y-154584989D02*
G01*
X85515268Y-155081136D01*
X85019121Y-156811407D01*
X83288850Y-156315260D01*
X83784997Y-154584989D01*
G37*
%TD.AperFunction*%
%TD*%
D10*
%TO.P,D84,2*%
%TO.N,Net-(D83-Pad1)*%
X75953871Y-155386041D03*
%TA.AperFunction,ComponentPad*%
D11*
%TO.P,D84,1*%
%TO.N,Net-(D84-Pad1)*%
G36*
X76469533Y-151867847D02*
G01*
X78126441Y-152571163D01*
X77423125Y-154228071D01*
X75766217Y-153524755D01*
X76469533Y-151867847D01*
G37*
%TD.AperFunction*%
%TD*%
D10*
%TO.P,D85,2*%
%TO.N,+12V*%
X68632702Y-151594602D03*
%TA.AperFunction,ComponentPad*%
D11*
%TO.P,D85,1*%
%TO.N,Net-(D85-Pad1)*%
G36*
X69632982Y-148182413D02*
G01*
X71175883Y-149109482D01*
X70248814Y-150652383D01*
X68705913Y-149725314D01*
X69632982Y-148182413D01*
G37*
%TD.AperFunction*%
%TD*%
D10*
%TO.P,D86,2*%
%TO.N,Net-(D85-Pad1)*%
X61896463Y-146839975D03*
%TA.AperFunction,ComponentPad*%
D11*
%TO.P,D86,1*%
%TO.N,Net-(D86-Pad1)*%
G36*
X63361894Y-143600205D02*
G01*
X64760757Y-144732982D01*
X63627980Y-146131845D01*
X62229117Y-144999068D01*
X63361894Y-143600205D01*
G37*
%TD.AperFunction*%
%TD*%
D10*
%TO.P,D87,2*%
%TO.N,Net-(D86-Pad1)*%
X55870681Y-141212138D03*
%TA.AperFunction,ComponentPad*%
D11*
%TO.P,D87,1*%
%TO.N,Net-(D87-Pad1)*%
G36*
X57772739Y-138207845D02*
G01*
X59000336Y-139524282D01*
X57683899Y-140751879D01*
X56456302Y-139435442D01*
X57772739Y-138207845D01*
G37*
%TD.AperFunction*%
%TD*%
D10*
%TO.P,D88,2*%
%TO.N,Net-(D87-Pad1)*%
X50667677Y-134816442D03*
%TA.AperFunction,ComponentPad*%
D11*
%TO.P,D88,1*%
%TO.N,Net-(D88-Pad1)*%
G36*
X52969341Y-132106102D02*
G01*
X54001779Y-133580576D01*
X52527305Y-134613014D01*
X51494867Y-133138540D01*
X52969341Y-132106102D01*
G37*
%TD.AperFunction*%
%TD*%
D10*
%TO.P,D89,2*%
%TO.N,Net-(D88-Pad1)*%
X46384522Y-127771568D03*
%TA.AperFunction,ComponentPad*%
D11*
%TO.P,D89,1*%
%TO.N,Net-(D89-Pad1)*%
G36*
X49040992Y-125407935D02*
G01*
X49858175Y-127011746D01*
X48254364Y-127828929D01*
X47437181Y-126225118D01*
X49040992Y-125407935D01*
G37*
%TD.AperFunction*%
%TD*%
D10*
%TO.P,D90,2*%
%TO.N,Net-(D89-Pad1)*%
X43108490Y-120229366D03*
%TA.AperFunction,ComponentPad*%
D11*
%TO.P,D90,1*%
%TO.N,Net-(D90-Pad1)*%
G36*
X46033215Y-118207093D02*
G01*
X46648851Y-119898539D01*
X44957405Y-120514175D01*
X44341769Y-118822729D01*
X46033215Y-118207093D01*
G37*
%TD.AperFunction*%
%TD*%
D10*
%TO.P,D91,2*%
%TO.N,Net-(D90-Pad1)*%
X40883053Y-112291048D03*
%TA.AperFunction,ComponentPad*%
D11*
%TO.P,D91,1*%
%TO.N,Net-(D91-Pad1)*%
G36*
X44060759Y-110695499D02*
G01*
X44435000Y-112456164D01*
X42674335Y-112830405D01*
X42300094Y-111069740D01*
X44060759Y-110695499D01*
G37*
%TD.AperFunction*%
%TD*%
D10*
%TO.P,D92,2*%
%TO.N,+12V*%
X39759794Y-104122591D03*
%TA.AperFunction,ComponentPad*%
D11*
%TO.P,D92,1*%
%TO.N,Net-(D92-Pad1)*%
G36*
X43128633Y-102984821D02*
G01*
X43254194Y-104780436D01*
X41458579Y-104905997D01*
X41333018Y-103110382D01*
X43128633Y-102984821D01*
G37*
%TD.AperFunction*%
%TD*%
D10*
%TO.P,D93,2*%
%TO.N,Net-(D92-Pad1)*%
X39759794Y-95877509D03*
%TA.AperFunction,ComponentPad*%
D11*
%TO.P,D93,1*%
%TO.N,Net-(D93-Pad1)*%
G36*
X43254194Y-95219664D02*
G01*
X43128633Y-97015279D01*
X41333018Y-96889718D01*
X41458579Y-95094103D01*
X43254194Y-95219664D01*
G37*
%TD.AperFunction*%
%TD*%
D10*
%TO.P,D94,2*%
%TO.N,Net-(D93-Pad1)*%
X40883053Y-87709452D03*
%TA.AperFunction,ComponentPad*%
D11*
%TO.P,D94,1*%
%TO.N,Net-(D94-Pad1)*%
G36*
X44435000Y-87544336D02*
G01*
X44060759Y-89305001D01*
X42300094Y-88930760D01*
X42674335Y-87170095D01*
X44435000Y-87544336D01*
G37*
%TD.AperFunction*%
%TD*%
D10*
%TO.P,D95,2*%
%TO.N,Net-(D94-Pad1)*%
X43108490Y-79770534D03*
%TA.AperFunction,ComponentPad*%
D11*
%TO.P,D95,1*%
%TO.N,Net-(D95-Pad1)*%
G36*
X46648851Y-80101361D02*
G01*
X46033215Y-81792807D01*
X44341769Y-81177171D01*
X44957405Y-79485725D01*
X46648851Y-80101361D01*
G37*
%TD.AperFunction*%
%TD*%
D10*
%TO.P,D96,2*%
%TO.N,Net-(D95-Pad1)*%
X46384522Y-72228432D03*
%TA.AperFunction,ComponentPad*%
D11*
%TO.P,D96,1*%
%TO.N,Net-(D96-Pad1)*%
G36*
X49858175Y-72988254D02*
G01*
X49040992Y-74592065D01*
X47437181Y-73774882D01*
X48254364Y-72171071D01*
X49858175Y-72988254D01*
G37*
%TD.AperFunction*%
%TD*%
D10*
%TO.P,D97,2*%
%TO.N,Net-(D96-Pad1)*%
X50667677Y-65183358D03*
%TA.AperFunction,ComponentPad*%
D11*
%TO.P,D97,1*%
%TO.N,Net-(D97-Pad1)*%
G36*
X54001779Y-66419224D02*
G01*
X52969341Y-67893698D01*
X51494867Y-66861260D01*
X52527305Y-65386786D01*
X54001779Y-66419224D01*
G37*
%TD.AperFunction*%
%TD*%
D10*
%TO.P,D98,2*%
%TO.N,Net-(D97-Pad1)*%
X55870681Y-58787362D03*
%TA.AperFunction,ComponentPad*%
D11*
%TO.P,D98,1*%
%TO.N,Net-(D98-Pad1)*%
G36*
X59000336Y-60475218D02*
G01*
X57772739Y-61791655D01*
X56456302Y-60564058D01*
X57683899Y-59247621D01*
X59000336Y-60475218D01*
G37*
%TD.AperFunction*%
%TD*%
D10*
%TO.P,D99,2*%
%TO.N,+12V*%
X61896463Y-53159825D03*
%TA.AperFunction,ComponentPad*%
D11*
%TO.P,D99,1*%
%TO.N,Net-(D100-Pad2)*%
G36*
X64760757Y-55266818D02*
G01*
X63361894Y-56399595D01*
X62229117Y-55000732D01*
X63627980Y-53867955D01*
X64760757Y-55266818D01*
G37*
%TD.AperFunction*%
%TD*%
D10*
%TO.P,D100,2*%
%TO.N,Net-(D100-Pad2)*%
X68632702Y-48405698D03*
%TA.AperFunction,ComponentPad*%
D11*
%TO.P,D100,1*%
%TO.N,Net-(D100-Pad1)*%
G36*
X71175883Y-50890818D02*
G01*
X69632982Y-51817887D01*
X68705913Y-50274986D01*
X70248814Y-49347917D01*
X71175883Y-50890818D01*
G37*
%TD.AperFunction*%
%TD*%
D10*
%TO.P,D101,2*%
%TO.N,Net-(D100-Pad1)*%
X75953871Y-44613559D03*
%TA.AperFunction,ComponentPad*%
D11*
%TO.P,D101,1*%
%TO.N,Net-(D101-Pad1)*%
G36*
X78126441Y-47428437D02*
G01*
X76469533Y-48131753D01*
X75766217Y-46474845D01*
X77423125Y-45771529D01*
X78126441Y-47428437D01*
G37*
%TD.AperFunction*%
%TD*%
D10*
%TO.P,D102,2*%
%TO.N,Net-(D101-Pad1)*%
X83701941Y-41860098D03*
%TA.AperFunction,ComponentPad*%
D11*
%TO.P,D102,1*%
%TO.N,Net-(D102-Pad1)*%
G36*
X85515268Y-44918764D02*
G01*
X83784997Y-45414911D01*
X83288850Y-43684640D01*
X85019121Y-43188493D01*
X85515268Y-44918764D01*
G37*
%TD.AperFunction*%
%TD*%
D10*
%TO.P,D103,2*%
%TO.N,Net-(D102-Pad1)*%
X91774250Y-40181860D03*
%TA.AperFunction,ComponentPad*%
D11*
%TO.P,D103,1*%
%TO.N,Net-(D103-Pad1)*%
G36*
X93144247Y-43463125D02*
G01*
X91361765Y-43713637D01*
X91111253Y-41931155D01*
X92893735Y-41680643D01*
X93144247Y-43463125D01*
G37*
%TD.AperFunction*%
%TD*%
D10*
%TO.P,D104,2*%
%TO.N,Net-(D103-Pad1)*%
X100000000Y-39618900D03*
D12*
%TO.P,D104,1*%
%TO.N,Net-(D104-Pad1)*%
X100000000Y-42158900D03*
%TD*%
D10*
%TO.P,D105,2*%
%TO.N,Net-(D104-Pad1)*%
X108225750Y-40181860D03*
%TA.AperFunction,ComponentPad*%
D11*
%TO.P,D105,1*%
%TO.N,Net-(D105-Pad1)*%
G36*
X108638235Y-43713637D02*
G01*
X106855753Y-43463125D01*
X107106265Y-41680643D01*
X108888747Y-41931155D01*
X108638235Y-43713637D01*
G37*
%TD.AperFunction*%
%TD*%
D10*
%TO.P,D106,2*%
%TO.N,+12V*%
X116298059Y-41860098D03*
%TA.AperFunction,ComponentPad*%
D11*
%TO.P,D106,1*%
%TO.N,Net-(D106-Pad1)*%
G36*
X116215003Y-45414911D02*
G01*
X114484732Y-44918764D01*
X114980879Y-43188493D01*
X116711150Y-43684640D01*
X116215003Y-45414911D01*
G37*
%TD.AperFunction*%
%TD*%
D10*
%TO.P,D107,2*%
%TO.N,Net-(D106-Pad1)*%
X124046229Y-44613559D03*
%TA.AperFunction,ComponentPad*%
D11*
%TO.P,D107,1*%
%TO.N,Net-(D107-Pad1)*%
G36*
X123530567Y-48131753D02*
G01*
X121873659Y-47428437D01*
X122576975Y-45771529D01*
X124233883Y-46474845D01*
X123530567Y-48131753D01*
G37*
%TD.AperFunction*%
%TD*%
D10*
%TO.P,D108,2*%
%TO.N,Net-(D107-Pad1)*%
X131367098Y-48405698D03*
%TA.AperFunction,ComponentPad*%
D11*
%TO.P,D108,1*%
%TO.N,Net-(D108-Pad1)*%
G36*
X130366818Y-51817887D02*
G01*
X128823917Y-50890818D01*
X129750986Y-49347917D01*
X131293887Y-50274986D01*
X130366818Y-51817887D01*
G37*
%TD.AperFunction*%
%TD*%
D10*
%TO.P,D109,2*%
%TO.N,Net-(D108-Pad1)*%
X138103237Y-53159825D03*
%TA.AperFunction,ComponentPad*%
D11*
%TO.P,D109,1*%
%TO.N,Net-(D109-Pad1)*%
G36*
X136637806Y-56399595D02*
G01*
X135238943Y-55266818D01*
X136371720Y-53867955D01*
X137770583Y-55000732D01*
X136637806Y-56399595D01*
G37*
%TD.AperFunction*%
%TD*%
D10*
%TO.P,D110,2*%
%TO.N,Net-(D109-Pad1)*%
X144129819Y-58787362D03*
%TA.AperFunction,ComponentPad*%
D11*
%TO.P,D110,1*%
%TO.N,Net-(D110-Pad1)*%
G36*
X142227761Y-61791655D02*
G01*
X141000164Y-60475218D01*
X142316601Y-59247621D01*
X143544198Y-60564058D01*
X142227761Y-61791655D01*
G37*
%TD.AperFunction*%
%TD*%
D10*
%TO.P,D111,2*%
%TO.N,Net-(D110-Pad1)*%
X149332323Y-65183358D03*
%TA.AperFunction,ComponentPad*%
D11*
%TO.P,D111,1*%
%TO.N,Net-(D111-Pad1)*%
G36*
X147030659Y-67893698D02*
G01*
X145998221Y-66419224D01*
X147472695Y-65386786D01*
X148505133Y-66861260D01*
X147030659Y-67893698D01*
G37*
%TD.AperFunction*%
%TD*%
D10*
%TO.P,D112,2*%
%TO.N,Net-(D111-Pad1)*%
X153615578Y-72228432D03*
%TA.AperFunction,ComponentPad*%
D11*
%TO.P,D112,1*%
%TO.N,Net-(D112-Pad1)*%
G36*
X150959108Y-74592065D02*
G01*
X150141925Y-72988254D01*
X151745736Y-72171071D01*
X152562919Y-73774882D01*
X150959108Y-74592065D01*
G37*
%TD.AperFunction*%
%TD*%
D10*
%TO.P,D113,2*%
%TO.N,+12V*%
X156891410Y-79770534D03*
%TA.AperFunction,ComponentPad*%
D11*
%TO.P,D113,1*%
%TO.N,Net-(D113-Pad1)*%
G36*
X153966685Y-81792807D02*
G01*
X153351049Y-80101361D01*
X155042495Y-79485725D01*
X155658131Y-81177171D01*
X153966685Y-81792807D01*
G37*
%TD.AperFunction*%
%TD*%
D10*
%TO.P,D114,2*%
%TO.N,Net-(D113-Pad1)*%
X159117247Y-87709452D03*
%TA.AperFunction,ComponentPad*%
D11*
%TO.P,D114,1*%
%TO.N,Net-(D114-Pad1)*%
G36*
X155939541Y-89305001D02*
G01*
X155565300Y-87544336D01*
X157325965Y-87170095D01*
X157700206Y-88930760D01*
X155939541Y-89305001D01*
G37*
%TD.AperFunction*%
%TD*%
D10*
%TO.P,D115,2*%
%TO.N,Net-(D114-Pad1)*%
X160239906Y-95877509D03*
%TA.AperFunction,ComponentPad*%
D11*
%TO.P,D115,1*%
%TO.N,Net-(D115-Pad1)*%
G36*
X156871067Y-97015279D02*
G01*
X156745506Y-95219664D01*
X158541121Y-95094103D01*
X158666682Y-96889718D01*
X156871067Y-97015279D01*
G37*
%TD.AperFunction*%
%TD*%
D10*
%TO.P,D116,2*%
%TO.N,Net-(D115-Pad1)*%
X169814260Y-104134467D03*
%TA.AperFunction,ComponentPad*%
D11*
%TO.P,D116,1*%
%TO.N,Net-(D116-Pad1)*%
G36*
X166331871Y-104853197D02*
G01*
X166426076Y-103055664D01*
X168223609Y-103149869D01*
X168129404Y-104947402D01*
X166331871Y-104853197D01*
G37*
%TD.AperFunction*%
%TD*%
D10*
%TO.P,D117,2*%
%TO.N,Net-(D116-Pad1)*%
X168834706Y-112366533D03*
%TA.AperFunction,ComponentPad*%
D11*
%TO.P,D117,1*%
%TO.N,Net-(D117-Pad1)*%
G36*
X165290684Y-112655511D02*
G01*
X165603250Y-110882857D01*
X167375904Y-111195423D01*
X167063338Y-112968077D01*
X165290684Y-112655511D01*
G37*
%TD.AperFunction*%
%TD*%
D10*
%TO.P,D118,2*%
%TO.N,Net-(D117-Pad1)*%
X166887507Y-120426312D03*
%TA.AperFunction,ComponentPad*%
D11*
%TO.P,D118,1*%
%TO.N,Net-(D118-Pad1)*%
G36*
X163334684Y-120281228D02*
G01*
X163860953Y-118559879D01*
X165582302Y-119086148D01*
X165056033Y-120807497D01*
X163334684Y-120281228D01*
G37*
%TD.AperFunction*%
%TD*%
D10*
%TO.P,D119,2*%
%TO.N,Net-(D118-Pad1)*%
X164000203Y-128197556D03*
%TA.AperFunction,ComponentPad*%
D11*
%TO.P,D119,1*%
%TO.N,Net-(D119-Pad1)*%
G36*
X160491543Y-127620572D02*
G01*
X161223669Y-125976190D01*
X162868051Y-126708316D01*
X162135925Y-128352698D01*
X160491543Y-127620572D01*
G37*
%TD.AperFunction*%
%TD*%
D10*
%TO.P,D120,2*%
%TO.N,+12V*%
X160213602Y-135573098D03*
%TA.AperFunction,ComponentPad*%
D11*
%TO.P,D120,1*%
%TO.N,Net-(D120-Pad1)*%
G36*
X156801413Y-134572818D02*
G01*
X157728482Y-133029917D01*
X159271383Y-133956986D01*
X158344314Y-135499887D01*
X156801413Y-134572818D01*
G37*
%TD.AperFunction*%
%TD*%
D10*
%TO.P,D121,2*%
%TO.N,Net-(D120-Pad1)*%
X155594267Y-142431305D03*
%TA.AperFunction,ComponentPad*%
D11*
%TO.P,D121,1*%
%TO.N,Net-(D121-Pad1)*%
G36*
X152305328Y-141079833D02*
G01*
X153388595Y-139642290D01*
X154826138Y-140725557D01*
X153742871Y-142163100D01*
X152305328Y-141079833D01*
G37*
%TD.AperFunction*%
%TD*%
D10*
%TO.P,D122,2*%
%TO.N,Net-(D121-Pad1)*%
X150182562Y-148712216D03*
%TA.AperFunction,ComponentPad*%
D11*
%TO.P,D122,1*%
%TO.N,Net-(D122-Pad1)*%
G36*
X147082840Y-146969997D02*
G01*
X148333225Y-145675186D01*
X149628036Y-146925571D01*
X148377651Y-148220382D01*
X147082840Y-146969997D01*
G37*
%TD.AperFunction*%
%TD*%
D10*
%TO.P,D123,2*%
%TO.N,Net-(D122-Pad1)*%
X144065237Y-154307975D03*
%TA.AperFunction,ComponentPad*%
D11*
%TO.P,D123,1*%
%TO.N,Net-(D123-Pad1)*%
G36*
X141200943Y-152200982D02*
G01*
X142599806Y-151068205D01*
X143732583Y-152467068D01*
X142333720Y-153599845D01*
X141200943Y-152200982D01*
G37*
%TD.AperFunction*%
%TD*%
D10*
%TO.P,D124,2*%
%TO.N,Net-(D123-Pad1)*%
X137328997Y-159141021D03*
%TA.AperFunction,ComponentPad*%
D11*
%TO.P,D124,1*%
%TO.N,Net-(D124-Pad1)*%
G36*
X134742832Y-156700663D02*
G01*
X136269319Y-155746808D01*
X137223174Y-157273295D01*
X135696687Y-158227150D01*
X134742832Y-156700663D01*
G37*
%TD.AperFunction*%
%TD*%
D10*
%TO.P,D125,2*%
%TO.N,Net-(D124-Pad1)*%
X130067725Y-163143011D03*
%TA.AperFunction,ComponentPad*%
D11*
%TO.P,D125,1*%
%TO.N,Net-(D125-Pad1)*%
G36*
X127798242Y-160405668D02*
G01*
X129429596Y-159644956D01*
X130190308Y-161276310D01*
X128558954Y-162037022D01*
X127798242Y-160405668D01*
G37*
%TD.AperFunction*%
%TD*%
D10*
%TO.P,D126,2*%
%TO.N,Net-(D125-Pad1)*%
X122405472Y-166250809D03*
%TA.AperFunction,ComponentPad*%
D11*
%TO.P,D126,1*%
%TO.N,Net-(D126-Pad1)*%
G36*
X120434550Y-163291236D02*
G01*
X122136483Y-162705213D01*
X122722506Y-164407146D01*
X121020573Y-164993169D01*
X120434550Y-163291236D01*
G37*
%TD.AperFunction*%
%TD*%
D10*
%TO.P,D127,2*%
%TO.N,+12V*%
X114408048Y-168436247D03*
%TA.AperFunction,ComponentPad*%
D11*
%TO.P,D127,1*%
%TO.N,Net-(D127-Pad1)*%
G36*
X112812499Y-165258541D02*
G01*
X114573164Y-164884300D01*
X114947405Y-166644965D01*
X113186740Y-167019206D01*
X112812499Y-165258541D01*
G37*
%TD.AperFunction*%
%TD*%
D10*
%TO.P,D128,2*%
%TO.N,Net-(D127-Pad1)*%
X106207688Y-169660167D03*
%TA.AperFunction,ComponentPad*%
D11*
%TO.P,D128,1*%
%TO.N,Net-(D128-Pad1)*%
G36*
X105011297Y-166311698D02*
G01*
X106804447Y-166154818D01*
X106961327Y-167947968D01*
X105168177Y-168104848D01*
X105011297Y-166311698D01*
G37*
%TD.AperFunction*%
%TD*%
D10*
%TO.P,D129,2*%
%TO.N,Net-(D128-Pad1)*%
X97920878Y-169906226D03*
%TA.AperFunction,ComponentPad*%
D11*
%TO.P,D129,1*%
%TO.N,Net-(D129-Pad1)*%
G36*
X97141480Y-166436913D02*
G01*
X98940383Y-166499732D01*
X98877564Y-168298635D01*
X97078661Y-168235816D01*
X97141480Y-166436913D01*
G37*
%TD.AperFunction*%
%TD*%
D10*
%TO.P,D130,2*%
%TO.N,Net-(D129-Pad1)*%
X89684850Y-169171640D03*
%TA.AperFunction,ComponentPad*%
D11*
%TO.P,D130,1*%
%TO.N,Net-(D130-Pad1)*%
G36*
X89272365Y-165639863D02*
G01*
X91054847Y-165890375D01*
X90804335Y-167672857D01*
X89021853Y-167422345D01*
X89272365Y-165639863D01*
G37*
%TD.AperFunction*%
%TD*%
D10*
%TO.P,D131,2*%
%TO.N,Net-(D130-Pad1)*%
X81571600Y-167464726D03*
%TA.AperFunction,ComponentPad*%
D11*
%TO.P,D131,1*%
%TO.N,Net-(D131-Pad1)*%
G36*
X81592604Y-163909004D02*
G01*
X83331270Y-164374878D01*
X82865396Y-166113544D01*
X81126730Y-165647670D01*
X81592604Y-163909004D01*
G37*
%TD.AperFunction*%
%TD*%
D10*
%TO.P,D132,2*%
%TO.N,Net-(D131-Pad1)*%
X73717450Y-164810523D03*
%TA.AperFunction,ComponentPad*%
D11*
%TO.P,D132,1*%
%TO.N,Net-(D132-Pad1)*%
G36*
X74171630Y-161283866D02*
G01*
X75840561Y-161958157D01*
X75166270Y-163627088D01*
X73497339Y-162952797D01*
X74171630Y-161283866D01*
G37*
%TD.AperFunction*%
%TD*%
D10*
%TO.P,D133,2*%
%TO.N,Net-(D132-Pad1)*%
X66232592Y-161244767D03*
%TA.AperFunction,ComponentPad*%
D11*
%TO.P,D133,1*%
%TO.N,Net-(D133-Pad1)*%
G36*
X67113179Y-157799747D02*
G01*
X68687494Y-158672404D01*
X67814837Y-160246719D01*
X66240522Y-159374062D01*
X67113179Y-157799747D01*
G37*
%TD.AperFunction*%
%TD*%
D10*
%TO.P,D134,2*%
%TO.N,+12V*%
X59222213Y-156818452D03*
%TA.AperFunction,ComponentPad*%
D11*
%TO.P,D134,1*%
%TO.N,Net-(D134-Pad1)*%
G36*
X60516078Y-153506426D02*
G01*
X61972309Y-154564439D01*
X60914296Y-156020670D01*
X59458065Y-154962657D01*
X60516078Y-153506426D01*
G37*
%TD.AperFunction*%
%TD*%
D10*
%TO.P,D135,2*%
%TO.N,Net-(D134-Pad1)*%
X52801404Y-151608794D03*
%TA.AperFunction,ComponentPad*%
D11*
%TO.P,D135,1*%
%TO.N,Net-(D135-Pad1)*%
G36*
X54434383Y-148450158D02*
G01*
X55772044Y-149654593D01*
X54567609Y-150992254D01*
X53229948Y-149787819D01*
X54434383Y-148450158D01*
G37*
%TD.AperFunction*%
%TD*%
D10*
%TO.P,D136,2*%
%TO.N,Net-(D135-Pad1)*%
X47025719Y-145660195D03*
%TA.AperFunction,ComponentPad*%
D11*
%TO.P,D136,1*%
%TO.N,Net-(D136-Pad1)*%
G36*
X49031466Y-142724113D02*
G01*
X50212373Y-144082590D01*
X48853896Y-145263497D01*
X47672989Y-143905020D01*
X49031466Y-142724113D01*
G37*
%TD.AperFunction*%
%TD*%
D10*
%TO.P,D137,2*%
%TO.N,Net-(D136-Pad1)*%
X41994622Y-139070175D03*
%TA.AperFunction,ComponentPad*%
D11*
%TO.P,D137,1*%
%TO.N,Net-(D137-Pad1)*%
G36*
X44343238Y-136400418D02*
G01*
X45349785Y-137892685D01*
X43857518Y-138899232D01*
X42850971Y-137406965D01*
X44343238Y-136400418D01*
G37*
%TD.AperFunction*%
%TD*%
D10*
%TO.P,D138,2*%
%TO.N,Net-(D137-Pad1)*%
X37778622Y-131931568D03*
%TA.AperFunction,ComponentPad*%
D11*
%TO.P,D138,1*%
%TO.N,Net-(D138-Pad1)*%
G36*
X40435092Y-129567935D02*
G01*
X41252275Y-131171746D01*
X39648464Y-131988929D01*
X38831281Y-130385118D01*
X40435092Y-129567935D01*
G37*
%TD.AperFunction*%
%TD*%
D10*
%TO.P,D139,2*%
%TO.N,Net-(D138-Pad1)*%
X34437090Y-124344366D03*
%TA.AperFunction,ComponentPad*%
D11*
%TO.P,D139,1*%
%TO.N,Net-(D139-Pad1)*%
G36*
X37361815Y-122322093D02*
G01*
X37977451Y-124013539D01*
X36286005Y-124629175D01*
X35670369Y-122937729D01*
X37361815Y-122322093D01*
G37*
%TD.AperFunction*%
%TD*%
D10*
%TO.P,D140,2*%
%TO.N,Net-(D139-Pad1)*%
X32022124Y-116436241D03*
%TA.AperFunction,ComponentPad*%
D11*
%TO.P,D140,1*%
%TO.N,Net-(D140-Pad1)*%
G36*
X35142212Y-114730763D02*
G01*
X35577672Y-116477295D01*
X33831140Y-116912755D01*
X33395680Y-115166223D01*
X35142212Y-114730763D01*
G37*
%TD.AperFunction*%
%TD*%
D10*
%TO.P,D141,2*%
%TO.N,+12V*%
X30554766Y-108275774D03*
%TA.AperFunction,ComponentPad*%
D11*
%TO.P,D141,1*%
%TO.N,Net-(D141-Pad1)*%
G36*
X33859443Y-106963252D02*
G01*
X34078808Y-108749835D01*
X32292225Y-108969200D01*
X32072860Y-107182617D01*
X33859443Y-106963252D01*
G37*
%TD.AperFunction*%
%TD*%
D10*
%TO.P,D142,2*%
%TO.N,Net-(D141-Pad1)*%
X30063300Y-100000000D03*
D12*
%TO.P,D142,1*%
%TO.N,Net-(D142-Pad1)*%
X32603300Y-100000000D03*
%TD*%
D10*
%TO.P,D143,2*%
%TO.N,Net-(D142-Pad1)*%
X30554766Y-91723826D03*
%TA.AperFunction,ComponentPad*%
D11*
%TO.P,D143,1*%
%TO.N,Net-(D143-Pad1)*%
G36*
X34078808Y-91249765D02*
G01*
X33859443Y-93036348D01*
X32072860Y-92816983D01*
X32292225Y-91030400D01*
X34078808Y-91249765D01*
G37*
%TD.AperFunction*%
%TD*%
D10*
%TO.P,D144,2*%
%TO.N,Net-(D143-Pad1)*%
X32022124Y-83563959D03*
%TA.AperFunction,ComponentPad*%
D11*
%TO.P,D144,1*%
%TO.N,Net-(D144-Pad1)*%
G36*
X35577672Y-83522905D02*
G01*
X35142212Y-85269437D01*
X33395680Y-84833977D01*
X33831140Y-83087445D01*
X35577672Y-83522905D01*
G37*
%TD.AperFunction*%
%TD*%
D10*
%TO.P,D145,2*%
%TO.N,Net-(D144-Pad1)*%
X34437090Y-75655834D03*
%TA.AperFunction,ComponentPad*%
D11*
%TO.P,D145,1*%
%TO.N,Net-(D145-Pad1)*%
G36*
X37977451Y-75986661D02*
G01*
X37361815Y-77678107D01*
X35670369Y-77062471D01*
X36286005Y-75371025D01*
X37977451Y-75986661D01*
G37*
%TD.AperFunction*%
%TD*%
D10*
%TO.P,D146,2*%
%TO.N,Net-(D145-Pad1)*%
X37778622Y-68068232D03*
%TA.AperFunction,ComponentPad*%
D11*
%TO.P,D146,1*%
%TO.N,Net-(D146-Pad1)*%
G36*
X41252275Y-68828054D02*
G01*
X40435092Y-70431865D01*
X38831281Y-69614682D01*
X39648464Y-68010871D01*
X41252275Y-68828054D01*
G37*
%TD.AperFunction*%
%TD*%
D10*
%TO.P,D147,2*%
%TO.N,Net-(D146-Pad1)*%
X41994622Y-60929425D03*
%TA.AperFunction,ComponentPad*%
D11*
%TO.P,D147,1*%
%TO.N,Net-(D147-Pad1)*%
G36*
X45349785Y-62106915D02*
G01*
X44343238Y-63599182D01*
X42850971Y-62592635D01*
X43857518Y-61100368D01*
X45349785Y-62106915D01*
G37*
%TD.AperFunction*%
%TD*%
D10*
%TO.P,D148,2*%
%TO.N,+12V*%
X47025719Y-54339705D03*
%TA.AperFunction,ComponentPad*%
D11*
%TO.P,D148,1*%
%TO.N,Net-(D148-Pad1)*%
G36*
X50212373Y-55917310D02*
G01*
X49031466Y-57275787D01*
X47672989Y-56094880D01*
X48853896Y-54736403D01*
X50212373Y-55917310D01*
G37*
%TD.AperFunction*%
%TD*%
D10*
%TO.P,D149,2*%
%TO.N,Net-(D148-Pad1)*%
X52801404Y-48391606D03*
%TA.AperFunction,ComponentPad*%
D11*
%TO.P,D149,1*%
%TO.N,Net-(D149-Pad1)*%
G36*
X55772044Y-50345807D02*
G01*
X54434383Y-51550242D01*
X53229948Y-50212581D01*
X54567609Y-49008146D01*
X55772044Y-50345807D01*
G37*
%TD.AperFunction*%
%TD*%
D10*
%TO.P,D150,2*%
%TO.N,Net-(D149-Pad1)*%
X59222213Y-43181748D03*
%TA.AperFunction,ComponentPad*%
D11*
%TO.P,D150,1*%
%TO.N,Net-(D150-Pad1)*%
G36*
X61972309Y-45435761D02*
G01*
X60516078Y-46493774D01*
X59458065Y-45037543D01*
X60914296Y-43979530D01*
X61972309Y-45435761D01*
G37*
%TD.AperFunction*%
%TD*%
D10*
%TO.P,D151,2*%
%TO.N,Net-(D150-Pad1)*%
X66232592Y-38755433D03*
%TA.AperFunction,ComponentPad*%
D11*
%TO.P,D151,1*%
%TO.N,Net-(D151-Pad1)*%
G36*
X68687494Y-41327796D02*
G01*
X67113179Y-42200453D01*
X66240522Y-40626138D01*
X67814837Y-39753481D01*
X68687494Y-41327796D01*
G37*
%TD.AperFunction*%
%TD*%
D10*
%TO.P,D152,2*%
%TO.N,Net-(D151-Pad1)*%
X73717450Y-35189777D03*
%TA.AperFunction,ComponentPad*%
D11*
%TO.P,D152,1*%
%TO.N,Net-(D152-Pad1)*%
G36*
X75840561Y-38042143D02*
G01*
X74171630Y-38716434D01*
X73497339Y-37047503D01*
X75166270Y-36373212D01*
X75840561Y-38042143D01*
G37*
%TD.AperFunction*%
%TD*%
D10*
%TO.P,D153,2*%
%TO.N,Net-(D152-Pad1)*%
X81571600Y-32534974D03*
%TA.AperFunction,ComponentPad*%
D11*
%TO.P,D153,1*%
%TO.N,Net-(D153-Pad1)*%
G36*
X83331270Y-35624822D02*
G01*
X81592604Y-36090696D01*
X81126730Y-34352030D01*
X82865396Y-33886156D01*
X83331270Y-35624822D01*
G37*
%TD.AperFunction*%
%TD*%
D10*
%TO.P,D154,2*%
%TO.N,Net-(D153-Pad1)*%
X89684850Y-30828260D03*
%TA.AperFunction,ComponentPad*%
D11*
%TO.P,D154,1*%
%TO.N,Net-(D154-Pad1)*%
G36*
X91054847Y-34109525D02*
G01*
X89272365Y-34360037D01*
X89021853Y-32577555D01*
X90804335Y-32327043D01*
X91054847Y-34109525D01*
G37*
%TD.AperFunction*%
%TD*%
D10*
%TO.P,D155,2*%
%TO.N,+12V*%
X97920878Y-30094274D03*
%TA.AperFunction,ComponentPad*%
D11*
%TO.P,D155,1*%
%TO.N,Net-(D155-Pad1)*%
G36*
X98940383Y-33500768D02*
G01*
X97141480Y-33563587D01*
X97078661Y-31764684D01*
X98877564Y-31701865D01*
X98940383Y-33500768D01*
G37*
%TD.AperFunction*%
%TD*%
D10*
%TO.P,D156,2*%
%TO.N,Net-(D155-Pad1)*%
X106207688Y-30339433D03*
%TA.AperFunction,ComponentPad*%
D11*
%TO.P,D156,1*%
%TO.N,Net-(D156-Pad1)*%
G36*
X106804447Y-33844782D02*
G01*
X105011297Y-33687902D01*
X105168177Y-31894752D01*
X106961327Y-32051632D01*
X106804447Y-33844782D01*
G37*
%TD.AperFunction*%
%TD*%
D10*
%TO.P,D157,2*%
%TO.N,Net-(D156-Pad1)*%
X114408048Y-31563553D03*
%TA.AperFunction,ComponentPad*%
D11*
%TO.P,D157,1*%
%TO.N,Net-(D157-Pad1)*%
G36*
X114573164Y-35115500D02*
G01*
X112812499Y-34741259D01*
X113186740Y-32980594D01*
X114947405Y-33354835D01*
X114573164Y-35115500D01*
G37*
%TD.AperFunction*%
%TD*%
D10*
%TO.P,D158,2*%
%TO.N,Net-(D157-Pad1)*%
X122405472Y-33749491D03*
%TA.AperFunction,ComponentPad*%
D11*
%TO.P,D158,1*%
%TO.N,Net-(D158-Pad1)*%
G36*
X122136483Y-37295087D02*
G01*
X120434550Y-36709064D01*
X121020573Y-35007131D01*
X122722506Y-35593154D01*
X122136483Y-37295087D01*
G37*
%TD.AperFunction*%
%TD*%
D10*
%TO.P,D159,2*%
%TO.N,Net-(D158-Pad1)*%
X130067725Y-36856889D03*
%TA.AperFunction,ComponentPad*%
D11*
%TO.P,D159,1*%
%TO.N,Net-(D159-Pad1)*%
G36*
X129429596Y-40354944D02*
G01*
X127798242Y-39594232D01*
X128558954Y-37962878D01*
X130190308Y-38723590D01*
X129429596Y-40354944D01*
G37*
%TD.AperFunction*%
%TD*%
D10*
%TO.P,D160,2*%
%TO.N,Net-(D159-Pad1)*%
X137328997Y-40858679D03*
%TA.AperFunction,ComponentPad*%
D11*
%TO.P,D160,1*%
%TO.N,Net-(D160-Pad1)*%
G36*
X136269319Y-44252892D02*
G01*
X134742832Y-43299037D01*
X135696687Y-41772550D01*
X137223174Y-42726405D01*
X136269319Y-44252892D01*
G37*
%TD.AperFunction*%
%TD*%
D10*
%TO.P,D161,2*%
%TO.N,Net-(D160-Pad1)*%
X144065237Y-45691725D03*
%TA.AperFunction,ComponentPad*%
D11*
%TO.P,D161,1*%
%TO.N,Net-(D161-Pad1)*%
G36*
X142599806Y-48931495D02*
G01*
X141200943Y-47798718D01*
X142333720Y-46399855D01*
X143732583Y-47532632D01*
X142599806Y-48931495D01*
G37*
%TD.AperFunction*%
%TD*%
D10*
%TO.P,D162,2*%
%TO.N,+12V*%
X150182562Y-51287984D03*
%TA.AperFunction,ComponentPad*%
D11*
%TO.P,D162,1*%
%TO.N,Net-(D162-Pad1)*%
G36*
X148333225Y-54325014D02*
G01*
X147082840Y-53030203D01*
X148377651Y-51779818D01*
X149628036Y-53074629D01*
X148333225Y-54325014D01*
G37*
%TD.AperFunction*%
%TD*%
D10*
%TO.P,D163,2*%
%TO.N,Net-(D162-Pad1)*%
X155594267Y-57568795D03*
%TA.AperFunction,ComponentPad*%
D11*
%TO.P,D163,1*%
%TO.N,Net-(D163-Pad1)*%
G36*
X153388595Y-60357810D02*
G01*
X152305328Y-58920267D01*
X153742871Y-57837000D01*
X154826138Y-59274543D01*
X153388595Y-60357810D01*
G37*
%TD.AperFunction*%
%TD*%
D10*
%TO.P,D164,2*%
%TO.N,Net-(D163-Pad1)*%
X160213602Y-64426802D03*
%TA.AperFunction,ComponentPad*%
D11*
%TO.P,D164,1*%
%TO.N,Net-(D164-Pad1)*%
G36*
X157728482Y-66969983D02*
G01*
X156801413Y-65427082D01*
X158344314Y-64500013D01*
X159271383Y-66042914D01*
X157728482Y-66969983D01*
G37*
%TD.AperFunction*%
%TD*%
D10*
%TO.P,D165,2*%
%TO.N,Net-(D164-Pad1)*%
X164000203Y-71802344D03*
%TA.AperFunction,ComponentPad*%
D11*
%TO.P,D165,1*%
%TO.N,Net-(D165-Pad1)*%
G36*
X161223669Y-74023710D02*
G01*
X160491543Y-72379328D01*
X162135925Y-71647202D01*
X162868051Y-73291584D01*
X161223669Y-74023710D01*
G37*
%TD.AperFunction*%
%TD*%
D10*
%TO.P,D166,2*%
%TO.N,Net-(D165-Pad1)*%
X166887507Y-79574088D03*
%TA.AperFunction,ComponentPad*%
D11*
%TO.P,D166,1*%
%TO.N,Net-(D166-Pad1)*%
G36*
X163860953Y-81440521D02*
G01*
X163334684Y-79719172D01*
X165056033Y-79192903D01*
X165582302Y-80914252D01*
X163860953Y-81440521D01*
G37*
%TD.AperFunction*%
%TD*%
D10*
%TO.P,D167,2*%
%TO.N,Net-(D166-Pad1)*%
X168834706Y-87632967D03*
%TA.AperFunction,ComponentPad*%
D11*
%TO.P,D167,1*%
%TO.N,Net-(D167-Pad1)*%
G36*
X165603250Y-89116643D02*
G01*
X165290684Y-87343989D01*
X167063338Y-87031423D01*
X167375904Y-88804077D01*
X165603250Y-89116643D01*
G37*
%TD.AperFunction*%
%TD*%
D10*
%TO.P,D168,2*%
%TO.N,Net-(D167-Pad1)*%
X169814260Y-95865633D03*
%TA.AperFunction,ComponentPad*%
D11*
%TO.P,D168,1*%
%TO.N,Net-(D168-Pad1)*%
G36*
X166426076Y-96944436D02*
G01*
X166331871Y-95146903D01*
X168129404Y-95052698D01*
X168223609Y-96850231D01*
X166426076Y-96944436D01*
G37*
%TD.AperFunction*%
%TD*%
%TO.P,J1,MP*%
%TO.N,N/C*%
%TA.AperFunction,ComponentPad*%
G36*
G01*
X162954951Y-158005204D02*
X161894291Y-156944544D01*
G75*
G02*
X161894291Y-155530330I707107J707107D01*
G01*
X161894291Y-155530330D01*
G75*
G02*
X163308505Y-155530330I707107J-707107D01*
G01*
X164369165Y-156590990D01*
G75*
G02*
X164369165Y-158005204I-707107J-707107D01*
G01*
X164369165Y-158005204D01*
G75*
G02*
X162954951Y-158005204I-707107J707107D01*
G01*
G37*
%TD.AperFunction*%
%TA.AperFunction,ComponentPad*%
G36*
G01*
X156590990Y-164369165D02*
X155530330Y-163308505D01*
G75*
G02*
X155530330Y-161894291I707107J707107D01*
G01*
X155530330Y-161894291D01*
G75*
G02*
X156944544Y-161894291I707107J-707107D01*
G01*
X158005204Y-162954951D01*
G75*
G02*
X158005204Y-164369165I-707107J-707107D01*
G01*
X158005204Y-164369165D01*
G75*
G02*
X156590990Y-164369165I-707107J707107D01*
G01*
G37*
%TD.AperFunction*%
%TO.P,J1,2*%
%TO.N,GND*%
%TA.AperFunction,ComponentPad*%
G36*
G01*
X158075915Y-160409367D02*
X158075915Y-160409367D01*
G75*
G02*
X158075915Y-158995153I707107J707107D01*
G01*
X158995153Y-158075915D01*
G75*
G02*
X160409367Y-158075915I707107J-707107D01*
G01*
X160409367Y-158075915D01*
G75*
G02*
X160409367Y-159490129I-707107J-707107D01*
G01*
X159490129Y-160409367D01*
G75*
G02*
X158075915Y-160409367I-707107J707107D01*
G01*
G37*
%TD.AperFunction*%
%TA.AperFunction,ComponentPad*%
%TO.P,J1,1*%
%TO.N,+12V*%
G36*
X154292893Y-157121320D02*
G01*
X152878680Y-155707107D01*
X155707107Y-152878680D01*
X157121320Y-154292893D01*
X154292893Y-157121320D01*
G37*
%TD.AperFunction*%
%TD*%
D13*
%TO.P,R1,1*%
%TO.N,Net-(D7-Pad1)*%
X108019823Y-144086101D03*
%TO.P,R1,2*%
%TO.N,GND*%
%TA.AperFunction,ComponentPad*%
G36*
G01*
X114607436Y-142320954D02*
X114607436Y-142320954D01*
G75*
G02*
X115173122Y-141341158I772741J207055D01*
G01*
X115173122Y-141341158D01*
G75*
G02*
X116152918Y-141906844I207055J-772741D01*
G01*
X116152918Y-141906844D01*
G75*
G02*
X115587232Y-142886640I-772741J-207055D01*
G01*
X115587232Y-142886640D01*
G75*
G02*
X114607436Y-142320954I-207055J772741D01*
G01*
G37*
%TD.AperFunction*%
%TD*%
%TO.P,R2,1*%
%TO.N,Net-(D14-Pad1)*%
X57411314Y-114192877D03*
%TO.P,R2,2*%
%TO.N,GND*%
%TA.AperFunction,ComponentPad*%
G36*
G01*
X60076101Y-120470719D02*
X60076101Y-120470719D01*
G75*
G02*
X61125090Y-120894538I312585J-736404D01*
G01*
X61125090Y-120894538D01*
G75*
G02*
X60701271Y-121943527I-736404J-312585D01*
G01*
X60701271Y-121943527D01*
G75*
G02*
X59652282Y-121519708I-312585J736404D01*
G01*
X59652282Y-121519708D01*
G75*
G02*
X60076101Y-120470719I736404J312585D01*
G01*
G37*
%TD.AperFunction*%
%TD*%
%TO.P,R3,1*%
%TO.N,Net-(D21-Pad1)*%
X79531063Y-60081008D03*
%TO.P,R3,2*%
%TO.N,GND*%
%TA.AperFunction,ComponentPad*%
G36*
G01*
X73747375Y-63695057D02*
X73747375Y-63695057D01*
G75*
G02*
X73492872Y-64797430I-678438J-423935D01*
G01*
X73492872Y-64797430D01*
G75*
G02*
X72390499Y-64542927I-423935J678438D01*
G01*
X72390499Y-64542927D01*
G75*
G02*
X72645002Y-63440554I678438J423935D01*
G01*
X72645002Y-63440554D01*
G75*
G02*
X73747375Y-63695057I423935J-678438D01*
G01*
G37*
%TD.AperFunction*%
%TD*%
%TO.P,R4,1*%
%TO.N,Net-(D28-Pad1)*%
X136299585Y-73575444D03*
%TO.P,R4,2*%
%TO.N,GND*%
%TA.AperFunction,ComponentPad*%
G36*
G01*
X131825262Y-68428324D02*
X131825262Y-68428324D01*
G75*
G02*
X130696647Y-68349403I-524847J603768D01*
G01*
X130696647Y-68349403D01*
G75*
G02*
X130775568Y-67220788I603768J524847D01*
G01*
X130775568Y-67220788D01*
G75*
G02*
X131904183Y-67299709I524847J-603768D01*
G01*
X131904183Y-67299709D01*
G75*
G02*
X131825262Y-68428324I-603768J-524847D01*
G01*
G37*
%TD.AperFunction*%
%TD*%
%TO.P,R5,1*%
%TO.N,Net-(D35-Pad1)*%
X142724925Y-133895335D03*
%TO.P,R5,2*%
%TO.N,GND*%
%TA.AperFunction,ComponentPad*%
G36*
G01*
X146439364Y-128175601D02*
X146439364Y-128175601D01*
G75*
G02*
X146204139Y-127068954I435711J670936D01*
G01*
X146204139Y-127068954D01*
G75*
G02*
X147310786Y-126833729I670936J-435711D01*
G01*
X147310786Y-126833729D01*
G75*
G02*
X147546011Y-127940376I-435711J-670936D01*
G01*
X147546011Y-127940376D01*
G75*
G02*
X146439364Y-128175601I-670936J435711D01*
G01*
G37*
%TD.AperFunction*%
%TD*%
%TO.P,R6,1*%
%TO.N,Net-(D42-Pad1)*%
X87736907Y-153003985D03*
%TO.P,R6,2*%
%TO.N,GND*%
%TA.AperFunction,ComponentPad*%
G36*
G01*
X94472942Y-154070867D02*
X94472942Y-154070867D01*
G75*
G02*
X95388241Y-153405864I790151J-125148D01*
G01*
X95388241Y-153405864D01*
G75*
G02*
X96053244Y-154321163I-125148J-790151D01*
G01*
X96053244Y-154321163D01*
G75*
G02*
X95137945Y-154986166I-790151J125148D01*
G01*
X95137945Y-154986166D01*
G75*
G02*
X94472942Y-154070867I125148J790151D01*
G01*
G37*
%TD.AperFunction*%
%TD*%
%TO.P,R7,1*%
%TO.N,Net-(D49-Pad1)*%
X46578278Y-109903173D03*
%TO.P,R7,2*%
%TO.N,GND*%
%TA.AperFunction,ComponentPad*%
G36*
G01*
X48228184Y-116520590D02*
X48228184Y-116520590D01*
G75*
G02*
X49197959Y-117103289I193538J-776237D01*
G01*
X49197959Y-117103289D01*
G75*
G02*
X48615260Y-118073064I-776237J-193538D01*
G01*
X48615260Y-118073064D01*
G75*
G02*
X47645485Y-117490365I-193538J776237D01*
G01*
X47645485Y-117490365D01*
G75*
G02*
X48228184Y-116520590I776237J193538D01*
G01*
G37*
%TD.AperFunction*%
%TD*%
%TO.P,R8,1*%
%TO.N,Net-(D56-Pad1)*%
X68902321Y-55454330D03*
%TO.P,R8,2*%
%TO.N,GND*%
%TA.AperFunction,ComponentPad*%
G36*
G01*
X63528088Y-59653141D02*
X63528088Y-59653141D01*
G75*
G02*
X63390208Y-60776079I-630409J-492529D01*
G01*
X63390208Y-60776079D01*
G75*
G02*
X62267270Y-60638199I-492529J630409D01*
G01*
X62267270Y-60638199D01*
G75*
G02*
X62405150Y-59515261I630409J492529D01*
G01*
X62405150Y-59515261D01*
G75*
G02*
X63528088Y-59653141I492529J-630409D01*
G01*
G37*
%TD.AperFunction*%
%TD*%
%TO.P,R9,1*%
%TO.N,Net-(D63-Pad1)*%
X129864030Y-54388687D03*
%TO.P,R9,2*%
%TO.N,GND*%
%TA.AperFunction,ComponentPad*%
G36*
G01*
X123842328Y-51186890D02*
X123842328Y-51186890D01*
G75*
G02*
X122760393Y-51517671I-706358J375577D01*
G01*
X122760393Y-51517671D01*
G75*
G02*
X122429612Y-50435736I375577J706358D01*
G01*
X122429612Y-50435736D01*
G75*
G02*
X123511547Y-50104955I706358J-375577D01*
G01*
X123511547Y-50104955D01*
G75*
G02*
X123842328Y-51186890I-375577J-706358D01*
G01*
G37*
%TD.AperFunction*%
%TD*%
%TO.P,R10,1*%
%TO.N,Net-(D70-Pad1)*%
X163434228Y-108300719D03*
%TO.P,R10,2*%
%TO.N,GND*%
%TA.AperFunction,ComponentPad*%
G36*
G01*
X163909967Y-101497332D02*
X163909967Y-101497332D01*
G75*
G02*
X163167721Y-100643476I55805J798051D01*
G01*
X163167721Y-100643476D01*
G75*
G02*
X164021577Y-99901230I798051J-55805D01*
G01*
X164021577Y-99901230D01*
G75*
G02*
X164763823Y-100755086I-55805J-798051D01*
G01*
X164763823Y-100755086D01*
G75*
G02*
X163909967Y-101497332I-798051J55805D01*
G01*
G37*
%TD.AperFunction*%
%TD*%
%TO.P,R11,1*%
%TO.N,Net-(D77-Pad1)*%
X129334193Y-156862295D03*
%TO.P,R11,2*%
%TO.N,GND*%
%TA.AperFunction,ComponentPad*%
G36*
G01*
X135180073Y-153349735D02*
X135180073Y-153349735D01*
G75*
G02*
X135453777Y-152251971I685734J412030D01*
G01*
X135453777Y-152251971D01*
G75*
G02*
X136551541Y-152525675I412030J-685734D01*
G01*
X136551541Y-152525675D01*
G75*
G02*
X136277837Y-153623439I-685734J-412030D01*
G01*
X136277837Y-153623439D01*
G75*
G02*
X135180073Y-153349735I-412030J685734D01*
G01*
G37*
%TD.AperFunction*%
%TD*%
%TO.P,R12,1*%
%TO.N,Net-(D84-Pad1)*%
X71392877Y-157211314D03*
%TO.P,R12,2*%
%TO.N,GND*%
%TA.AperFunction,ComponentPad*%
G36*
G01*
X77670719Y-159876101D02*
X77670719Y-159876101D01*
G75*
G02*
X78719708Y-159452282I736404J-312585D01*
G01*
X78719708Y-159452282D01*
G75*
G02*
X79143527Y-160501271I-312585J-736404D01*
G01*
X79143527Y-160501271D01*
G75*
G02*
X78094538Y-160925090I-736404J312585D01*
G01*
X78094538Y-160925090D01*
G75*
G02*
X77670719Y-159876101I312585J736404D01*
G01*
G37*
%TD.AperFunction*%
%TD*%
%TO.P,R13,1*%
%TO.N,Net-(D91-Pad1)*%
X36807856Y-110073258D03*
%TO.P,R13,2*%
%TO.N,GND*%
%TA.AperFunction,ComponentPad*%
G36*
G01*
X38225815Y-116744224D02*
X38225815Y-116744224D01*
G75*
G02*
X39174662Y-117360413I166329J-782518D01*
G01*
X39174662Y-117360413D01*
G75*
G02*
X38558473Y-118309260I-782518J-166329D01*
G01*
X38558473Y-118309260D01*
G75*
G02*
X37609626Y-117693071I-166329J782518D01*
G01*
X37609626Y-117693071D01*
G75*
G02*
X38225815Y-116744224I782518J166329D01*
G01*
G37*
%TD.AperFunction*%
%TD*%
%TO.P,R14,1*%
%TO.N,Net-(D98-Pad1)*%
X55298414Y-54413542D03*
%TO.P,R14,2*%
%TO.N,GND*%
%TA.AperFunction,ComponentPad*%
G36*
G01*
X50647185Y-59401375D02*
X50647185Y-59401375D01*
G75*
G02*
X50686669Y-60532057I-545599J-585083D01*
G01*
X50686669Y-60532057D01*
G75*
G02*
X49555987Y-60571541I-585083J545599D01*
G01*
X49555987Y-60571541D01*
G75*
G02*
X49516503Y-59440859I545599J585083D01*
G01*
X49516503Y-59440859D01*
G75*
G02*
X50647185Y-59401375I585083J-545599D01*
G01*
G37*
%TD.AperFunction*%
%TD*%
%TO.P,R15,1*%
%TO.N,Net-(D105-Pad1)*%
X112872921Y-37330250D03*
%TO.P,R15,2*%
%TO.N,GND*%
%TA.AperFunction,ComponentPad*%
G36*
G01*
X106119293Y-36381088D02*
X106119293Y-36381088D01*
G75*
G02*
X105215741Y-37061964I-792214J111338D01*
G01*
X105215741Y-37061964D01*
G75*
G02*
X104534865Y-36158412I111338J792214D01*
G01*
X104534865Y-36158412D01*
G75*
G02*
X105438417Y-35477536I792214J-111338D01*
G01*
X105438417Y-35477536D01*
G75*
G02*
X106119293Y-36381088I-111338J-792214D01*
G01*
G37*
%TD.AperFunction*%
%TD*%
%TO.P,R16,1*%
%TO.N,Net-(D112-Pad1)*%
X158329704Y-73994735D03*
%TO.P,R16,2*%
%TO.N,GND*%
%TA.AperFunction,ComponentPad*%
G36*
G01*
X155233488Y-67918070D02*
X155233488Y-67918070D01*
G75*
G02*
X154157491Y-67568457I-363192J712805D01*
G01*
X154157491Y-67568457D01*
G75*
G02*
X154507104Y-66492460I712805J363192D01*
G01*
X154507104Y-66492460D01*
G75*
G02*
X155583101Y-66842073I363192J-712805D01*
G01*
X155583101Y-66842073D01*
G75*
G02*
X155233488Y-67918070I-712805J-363192D01*
G01*
G37*
%TD.AperFunction*%
%TD*%
%TO.P,R17,1*%
%TO.N,Net-(D119-Pad1)*%
X165866333Y-133177608D03*
%TO.P,R17,2*%
%TO.N,GND*%
%TA.AperFunction,ComponentPad*%
G36*
G01*
X168640278Y-126947228D02*
X168640278Y-126947228D01*
G75*
G02*
X168234831Y-125891003I325389J730836D01*
G01*
X168234831Y-125891003D01*
G75*
G02*
X169291056Y-125485556I730836J-325389D01*
G01*
X169291056Y-125485556D01*
G75*
G02*
X169696503Y-126541781I-325389J-730836D01*
G01*
X169696503Y-126541781D01*
G75*
G02*
X168640278Y-126947228I-730836J325389D01*
G01*
G37*
%TD.AperFunction*%
%TD*%
%TO.P,R18,1*%
%TO.N,Net-(D126-Pad1)*%
X119990574Y-171026415D03*
%TO.P,R18,2*%
%TO.N,GND*%
%TA.AperFunction,ComponentPad*%
G36*
G01*
X126439011Y-168806040D02*
X126439011Y-168806040D01*
G75*
G02*
X126934971Y-167789170I756415J260455D01*
G01*
X126934971Y-167789170D01*
G75*
G02*
X127951841Y-168285130I260455J-756415D01*
G01*
X127951841Y-168285130D01*
G75*
G02*
X127455881Y-169302000I-756415J-260455D01*
G01*
X127455881Y-169302000D01*
G75*
G02*
X126439011Y-168806040I-260455J756415D01*
G01*
G37*
%TD.AperFunction*%
%TD*%
%TO.P,R19,1*%
%TO.N,Net-(D133-Pad1)*%
X61101999Y-162664875D03*
%TO.P,R19,2*%
%TO.N,GND*%
%TA.AperFunction,ComponentPad*%
G36*
G01*
X67066905Y-165971277D02*
X67066905Y-165971277D01*
G75*
G02*
X68154449Y-165659429I699696J-387848D01*
G01*
X68154449Y-165659429D01*
G75*
G02*
X68466297Y-166746973I-387848J-699696D01*
G01*
X68466297Y-166746973D01*
G75*
G02*
X67378753Y-167058821I-699696J387848D01*
G01*
X67378753Y-167058821D01*
G75*
G02*
X67066905Y-165971277I387848J699696D01*
G01*
G37*
%TD.AperFunction*%
%TD*%
%TO.P,R20,1*%
%TO.N,Net-(D140-Pad1)*%
X27472578Y-113606173D03*
%TO.P,R20,2*%
%TO.N,GND*%
%TA.AperFunction,ComponentPad*%
G36*
G01*
X29122484Y-120223590D02*
X29122484Y-120223590D01*
G75*
G02*
X30092259Y-120806289I193538J-776237D01*
G01*
X30092259Y-120806289D01*
G75*
G02*
X29509560Y-121776064I-776237J-193538D01*
G01*
X29509560Y-121776064D01*
G75*
G02*
X28539785Y-121193365I-193538J776237D01*
G01*
X28539785Y-121193365D01*
G75*
G02*
X29122484Y-120223590I776237J193538D01*
G01*
G37*
%TD.AperFunction*%
%TD*%
%TO.P,R21,1*%
%TO.N,Net-(D147-Pad1)*%
X41030925Y-55687767D03*
%TO.P,R21,2*%
%TO.N,GND*%
%TA.AperFunction,ComponentPad*%
G36*
G01*
X37217229Y-61341803D02*
X37217229Y-61341803D01*
G75*
G02*
X37433105Y-62452387I-447354J-663230D01*
G01*
X37433105Y-62452387D01*
G75*
G02*
X36322521Y-62668263I-663230J447354D01*
G01*
X36322521Y-62668263D01*
G75*
G02*
X36106645Y-61557679I447354J663230D01*
G01*
X36106645Y-61557679D01*
G75*
G02*
X37217229Y-61341803I663230J-447354D01*
G01*
G37*
%TD.AperFunction*%
%TD*%
%TO.P,R22,1*%
%TO.N,Net-(D154-Pad1)*%
X92896321Y-26610450D03*
%TO.P,R22,2*%
%TO.N,GND*%
%TA.AperFunction,ComponentPad*%
G36*
G01*
X86142693Y-27559612D02*
X86142693Y-27559612D01*
G75*
G02*
X85461817Y-28463164I-792214J-111338D01*
G01*
X85461817Y-28463164D01*
G75*
G02*
X84558265Y-27782288I-111338J792214D01*
G01*
X84558265Y-27782288D01*
G75*
G02*
X85239141Y-26878736I792214J111338D01*
G01*
X85239141Y-26878736D01*
G75*
G02*
X86142693Y-27559612I111338J-792214D01*
G01*
G37*
%TD.AperFunction*%
%TD*%
%TO.P,R23,1*%
%TO.N,Net-(D161-Pad1)*%
X149376926Y-45193811D03*
%TO.P,R23,2*%
%TO.N,GND*%
%TA.AperFunction,ComponentPad*%
G36*
G01*
X144076791Y-40901845D02*
X144076791Y-40901845D01*
G75*
G02*
X142951618Y-41020106I-621717J503456D01*
G01*
X142951618Y-41020106D01*
G75*
G02*
X142833357Y-39894933I503456J621717D01*
G01*
X142833357Y-39894933D01*
G75*
G02*
X143958530Y-39776672I621717J-503456D01*
G01*
X143958530Y-39776672D01*
G75*
G02*
X144076791Y-40901845I-503456J-621717D01*
G01*
G37*
%TD.AperFunction*%
%TD*%
%TO.P,R24,1*%
%TO.N,Net-(D168-Pad1)*%
X173736400Y-99440679D03*
%TO.P,R24,2*%
%TO.N,GND*%
%TA.AperFunction,ComponentPad*%
G36*
G01*
X173379469Y-92630025D02*
X173379469Y-92630025D01*
G75*
G02*
X172538696Y-91872990I-41869J798904D01*
G01*
X172538696Y-91872990D01*
G75*
G02*
X173295731Y-91032217I798904J41869D01*
G01*
X173295731Y-91032217D01*
G75*
G02*
X174136504Y-91789252I41869J-798904D01*
G01*
X174136504Y-91789252D01*
G75*
G02*
X173379469Y-92630025I-798904J-41869D01*
G01*
G37*
%TD.AperFunction*%
%TD*%
D14*
%TO.N,+12V*%
X61896500Y-53159800D02*
X73681900Y-53159800D01*
X73681900Y-53159800D02*
X75818000Y-55295900D01*
X47025700Y-54339700D02*
X48205600Y-53159800D01*
X48205600Y-53159800D02*
X61896500Y-53159800D01*
X156891400Y-79770500D02*
X155312200Y-78191300D01*
X155312200Y-78191300D02*
X137865700Y-78191300D01*
X137865700Y-78191300D02*
X136084800Y-79972200D01*
X59576600Y-108316000D02*
X53461800Y-108316000D01*
X53461800Y-108316000D02*
X49348500Y-104202700D01*
X39759800Y-104122600D02*
X41006800Y-105369600D01*
X41006800Y-105369600D02*
X48181600Y-105369600D01*
X48181600Y-105369600D02*
X49348500Y-104202700D01*
X159117200Y-112291000D02*
X159117200Y-111830100D01*
X159117200Y-111830100D02*
X155040900Y-107753800D01*
X155040900Y-107753800D02*
X144632000Y-107753800D01*
X144632000Y-107753800D02*
X141058000Y-104179800D01*
X68632700Y-151594600D02*
X71611200Y-151594600D01*
X71611200Y-151594600D02*
X75135000Y-148070800D01*
X75135000Y-148070800D02*
X83495800Y-148070800D01*
X160213600Y-135573100D02*
X159617000Y-136169700D01*
X159617000Y-136169700D02*
X139128400Y-136169700D01*
X139128400Y-136169700D02*
X137387800Y-134429100D01*
X59222200Y-156818500D02*
X63408800Y-156818500D01*
X63408800Y-156818500D02*
X68632700Y-151594600D01*
X39759800Y-104122600D02*
X34430700Y-104122600D01*
X34430700Y-104122600D02*
X30554800Y-107998500D01*
X30554800Y-107998500D02*
X30554800Y-108275800D01*
X150182600Y-51288000D02*
X146054300Y-51288000D01*
X146054300Y-51288000D02*
X137449400Y-59892900D01*
X137449400Y-59892900D02*
X131219900Y-59892900D01*
X155000000Y-155000000D02*
X155000000Y-145300000D01*
X160213602Y-140086398D02*
X160213602Y-135573098D01*
X155000000Y-145300000D02*
X160213602Y-140086398D01*
%TO.N,Net-(D6-Pad1)*%
X117059300Y-134770500D02*
X115367700Y-135595600D01*
X110354700Y-139949700D02*
X114708900Y-135595500D01*
X114708900Y-135595500D02*
X115367600Y-135595500D01*
X115367600Y-135595500D02*
X115367700Y-135595600D01*
%TO.N,Net-(D8-Pad1)*%
X101959500Y-138680700D02*
X100488200Y-138757800D01*
X93744200Y-140793400D02*
X98452600Y-140793400D01*
X98452600Y-140793400D02*
X100488200Y-138757800D01*
%TO.N,Net-(D10-Pad2)*%
X94141600Y-138284600D02*
X92539800Y-138031000D01*
X85673400Y-138703400D02*
X91867400Y-138703400D01*
X91867400Y-138703400D02*
X92539800Y-138031000D01*
%TO.N,Net-(D10-Pad1)*%
X86542200Y-136316600D02*
X84747700Y-135663500D01*
X78168400Y-135023000D02*
X78808900Y-135663500D01*
X78808900Y-135663500D02*
X84747700Y-135663500D01*
%TO.N,Net-(D11-Pad1)*%
X79514400Y-132869000D02*
X78053000Y-131955800D01*
X71559100Y-129905600D02*
X73609300Y-131955800D01*
X73609300Y-131955800D02*
X78053000Y-131955800D01*
%TO.N,Net-(D12-Pad1)*%
X73323500Y-128078400D02*
X72298900Y-127088800D01*
X72298900Y-127088800D02*
X72298800Y-127088900D01*
X72298800Y-127088900D02*
X69638700Y-127088900D01*
X69638700Y-127088900D02*
X66129200Y-123579400D01*
%TO.N,Net-(D13-Pad1)*%
X68209800Y-122122600D02*
X67265200Y-120773500D01*
X62072700Y-116270200D02*
X66576100Y-120773600D01*
X66576100Y-120773600D02*
X67265100Y-120773600D01*
X67265100Y-120773600D02*
X67265200Y-120773500D01*
%TO.N,Net-(D14-Pad1)*%
X64410700Y-115277800D02*
X63642700Y-113468300D01*
X57411300Y-114192900D02*
X62918100Y-114192900D01*
X62918100Y-114192900D02*
X63642700Y-113468300D01*
%TO.N,Net-(D16-Pad1)*%
X61270000Y-100000000D02*
X61270000Y-98600000D01*
X59576600Y-91684100D02*
X59576600Y-96906600D01*
X59576600Y-96906600D02*
X61270000Y-98600000D01*
%TO.N,Net-(D22-Pad1)*%
X86542200Y-63683300D02*
X88336600Y-63030200D01*
X93744200Y-59206900D02*
X89920800Y-63030300D01*
X89920800Y-63030300D02*
X88336600Y-63030300D01*
X88336600Y-63030300D02*
X88336600Y-63030200D01*
%TO.N,Net-(D23-Pad1)*%
X94141600Y-61715700D02*
X95743400Y-61462100D01*
X102092500Y-58783000D02*
X98422400Y-58783000D01*
X98422400Y-58783000D02*
X95743400Y-61462000D01*
X95743400Y-61462000D02*
X95743400Y-61462100D01*
%TO.N,Net-(D24-Pad1)*%
X101959500Y-61319600D02*
X103430900Y-61396700D01*
X110354700Y-60050200D02*
X104777300Y-60050200D01*
X104777300Y-60050200D02*
X103430900Y-61396600D01*
X103430900Y-61396600D02*
X103430900Y-61396700D01*
%TO.N,Net-(D25-Pad1)*%
X109697300Y-62503600D02*
X111412000Y-62963000D01*
X111412000Y-62963000D02*
X111428700Y-62946300D01*
X111428700Y-62946300D02*
X118172700Y-62946300D01*
%TO.N,Net-(D26-Pad1)*%
X117059300Y-65229300D02*
X118750800Y-66054300D01*
X118750800Y-66054300D02*
X120064700Y-67368200D01*
X120064700Y-67368200D02*
X125265900Y-67368200D01*
%TO.N,Net-(D27-Pad1)*%
X123702100Y-69369800D02*
X124940700Y-70337600D01*
X131308500Y-73111900D02*
X128534100Y-70337500D01*
X128534100Y-70337500D02*
X124940800Y-70337500D01*
X124940800Y-70337500D02*
X124940700Y-70337600D01*
%TO.N,Net-(D28-Pad1)*%
X136299600Y-73575400D02*
X135096700Y-74778300D01*
X135096700Y-74778300D02*
X129391500Y-74778300D01*
%TO.N,Net-(D31-Pad1)*%
X138532000Y-96086100D02*
X138693700Y-97624800D01*
X150651200Y-104202700D02*
X150651200Y-103989300D01*
X150651200Y-103989300D02*
X145101600Y-98439700D01*
X145101600Y-98439700D02*
X140885600Y-98439700D01*
X140885600Y-98439700D02*
X140070700Y-97624800D01*
X140070700Y-97624800D02*
X138693700Y-97624800D01*
%TO.N,Net-(D38-Pad1)*%
X122989800Y-142461700D02*
X121375800Y-143320000D01*
X116504500Y-148070800D02*
X121255400Y-143319900D01*
X121255400Y-143319900D02*
X121375700Y-143319900D01*
X121375700Y-143319900D02*
X121375800Y-143320000D01*
%TO.N,Net-(D39-Pad1)*%
X115677500Y-145669200D02*
X113898000Y-146282000D01*
X113898000Y-146282000D02*
X112208100Y-146282000D01*
X112208100Y-146282000D02*
X108355700Y-150134400D01*
%TO.N,Net-(D41-Pad1)*%
X100000000Y-148286000D02*
X98600000Y-148286000D01*
X98600000Y-148286000D02*
X96751600Y-150134400D01*
X96751600Y-150134400D02*
X91644700Y-150134400D01*
%TO.N,Net-(D43-Pad1)*%
X84322800Y-145669200D02*
X82543200Y-145056400D01*
X82543200Y-145056400D02*
X76170100Y-145056400D01*
X76170100Y-145056400D02*
X75818000Y-144704300D01*
%TO.N,Net-(D44-Pad1)*%
X77010400Y-142461700D02*
X75396400Y-141603400D01*
X68780400Y-140106800D02*
X70277100Y-141603500D01*
X70277100Y-141603500D02*
X75396300Y-141603500D01*
X75396300Y-141603500D02*
X75396400Y-141603400D01*
%TO.N,Net-(D45-Pad1)*%
X70344200Y-138105200D02*
X69105600Y-137137400D01*
X62612000Y-134429100D02*
X65320400Y-137137500D01*
X65320400Y-137137500D02*
X69105500Y-137137500D01*
X69105500Y-137137500D02*
X69105600Y-137137400D01*
%TO.N,Net-(D46-Pad1)*%
X57448700Y-127795700D02*
X62349900Y-132696900D01*
X62349900Y-132696900D02*
X64469600Y-132696900D01*
%TO.N,Net-(D47-Pad1)*%
X59578900Y-126412300D02*
X58654400Y-124988500D01*
X53458100Y-120422600D02*
X58024100Y-124988600D01*
X58024100Y-124988600D02*
X58654300Y-124988600D01*
X58654300Y-124988600D02*
X58654400Y-124988500D01*
%TO.N,Net-(D49-Pad1)*%
X53193100Y-111857800D02*
X52770000Y-110160700D01*
X46578300Y-109903200D02*
X51238500Y-109903200D01*
X51238500Y-109903200D02*
X51496000Y-110160700D01*
X51496000Y-110160700D02*
X52770000Y-110160700D01*
%TO.N,Net-(D53-Pad1)*%
X55778500Y-80610400D02*
X56566500Y-78840300D01*
X56566500Y-78840300D02*
X57448700Y-77958100D01*
X57448700Y-77958100D02*
X57448700Y-72204000D01*
%TO.N,Net-(D57-Pad1)*%
X77010400Y-57538500D02*
X78624400Y-56680200D01*
X83495800Y-51928700D02*
X78744200Y-56680300D01*
X78744200Y-56680300D02*
X78624500Y-56680300D01*
X78624500Y-56680300D02*
X78624400Y-56680200D01*
%TO.N,Net-(D58-Pad1)*%
X84322800Y-54330300D02*
X86102300Y-53717500D01*
X86102300Y-53717500D02*
X86102300Y-53717400D01*
X86102300Y-53717400D02*
X89953800Y-49865900D01*
X89953800Y-49865900D02*
X91644700Y-49865900D01*
%TO.N,Net-(D59-Pad1)*%
X92042100Y-52374700D02*
X93643900Y-52121100D01*
X100000000Y-49174400D02*
X97053300Y-52121100D01*
X97053300Y-52121100D02*
X93643900Y-52121100D01*
%TO.N,Net-(D60-Pad1)*%
X100000000Y-51714400D02*
X101400000Y-51714400D01*
X101400000Y-51714400D02*
X103248500Y-49865900D01*
X103248500Y-49865900D02*
X108355700Y-49865900D01*
%TO.N,Net-(D61-Pad1)*%
X107958300Y-52374700D02*
X109560100Y-52628300D01*
X116504500Y-51928700D02*
X110259700Y-51928700D01*
X110259700Y-51928700D02*
X109560100Y-52628300D01*
%TO.N,Net-(D62-Pad1)*%
X115677500Y-54330300D02*
X117457100Y-54943100D01*
X117457100Y-54943100D02*
X123829400Y-54943100D01*
X123829400Y-54943100D02*
X124182200Y-55295900D01*
%TO.N,Net-(D63-Pad1)*%
X122989800Y-57538500D02*
X124603800Y-58396800D01*
X129864000Y-54388700D02*
X126714200Y-57538500D01*
X126714200Y-57538500D02*
X125462100Y-57538500D01*
X125462100Y-57538500D02*
X124603800Y-58396800D01*
%TO.N,Net-(D64-Pad1)*%
X129656100Y-61894500D02*
X130894700Y-62862300D01*
X137387800Y-65570800D02*
X134679200Y-62862200D01*
X134679200Y-62862200D02*
X130894800Y-62862200D01*
X130894800Y-62862200D02*
X130894700Y-62862300D01*
%TO.N,Net-(D69-Pad1)*%
X148120800Y-96018400D02*
X148253600Y-97535100D01*
X160239900Y-104122600D02*
X160239900Y-104021000D01*
X160239900Y-104021000D02*
X154681500Y-98462600D01*
X154681500Y-98462600D02*
X150565000Y-98462600D01*
X150565000Y-98462600D02*
X149637500Y-97535100D01*
X149637500Y-97535100D02*
X148253600Y-97535100D01*
%TO.N,Net-(D70-Pad1)*%
X163434200Y-108300700D02*
X162061400Y-108300700D01*
X162061400Y-108300700D02*
X157706100Y-103945400D01*
%TO.N,Net-(D78-Pad1)*%
X123053800Y-153048000D02*
X121244300Y-153816000D01*
X116298100Y-158139800D02*
X120621900Y-153816000D01*
X120621900Y-153816000D02*
X121244300Y-153816000D01*
%TO.N,Net-(D79-Pad1)*%
X115597900Y-155698200D02*
X113866200Y-156194700D01*
X108225700Y-159818600D02*
X110242300Y-159818600D01*
X110242300Y-159818600D02*
X113866200Y-156194700D01*
%TO.N,Net-(D80-Pad1)*%
X107872300Y-157303400D02*
X106291000Y-157525700D01*
X100000000Y-160381000D02*
X102855400Y-157525600D01*
X102855400Y-157525600D02*
X106291000Y-157525600D01*
X106291000Y-157525600D02*
X106291000Y-157525700D01*
%TO.N,Net-(D81-Pad1)*%
X100000000Y-157841000D02*
X98600000Y-157841000D01*
X91774300Y-159818600D02*
X96622400Y-159818600D01*
X96622400Y-159818600D02*
X98600000Y-157841000D01*
%TO.N,Net-(D82-Pad1)*%
X92127700Y-157303400D02*
X90546500Y-157081100D01*
X83701900Y-158139800D02*
X89487900Y-158139800D01*
X89487900Y-158139800D02*
X90546500Y-157081200D01*
X90546500Y-157081200D02*
X90546500Y-157081100D01*
%TO.N,Net-(D83-Pad1)*%
X84402100Y-155698200D02*
X82670500Y-155201800D01*
X75953900Y-155386000D02*
X82486300Y-155386000D01*
X82486300Y-155386000D02*
X82670500Y-155201800D01*
%TO.N,Net-(D84-Pad1)*%
X76946300Y-153048000D02*
X75136800Y-152279900D01*
X71392900Y-157211300D02*
X75110500Y-153493700D01*
X75110500Y-153493700D02*
X75110500Y-152306200D01*
X75110500Y-152306200D02*
X75136800Y-152279900D01*
%TO.N,Net-(D85-Pad1)*%
X69940900Y-149417400D02*
X68441600Y-148516600D01*
X68441600Y-148516600D02*
X66765000Y-146840000D01*
X66765000Y-146840000D02*
X61896500Y-146840000D01*
%TO.N,Net-(D86-Pad1)*%
X63494900Y-144866000D02*
X62292600Y-143892300D01*
X55870700Y-141212100D02*
X58551000Y-143892400D01*
X58551000Y-143892400D02*
X62292500Y-143892400D01*
X62292500Y-143892400D02*
X62292600Y-143892300D01*
%TO.N,Net-(D87-Pad1)*%
X50667700Y-134816400D02*
X55331200Y-139479900D01*
X55331200Y-139479900D02*
X57728300Y-139479900D01*
%TO.N,Net-(D88-Pad1)*%
X52748300Y-133359600D02*
X51803700Y-132010500D01*
X46384500Y-127771600D02*
X50623500Y-132010600D01*
X50623500Y-132010600D02*
X51803600Y-132010600D01*
X51803600Y-132010600D02*
X51803700Y-132010500D01*
%TO.N,Net-(D91-Pad1)*%
X43367500Y-111763000D02*
X43014500Y-110102400D01*
X36807900Y-110073300D02*
X41677800Y-110073300D01*
X41677800Y-110073300D02*
X41706900Y-110102400D01*
X41706900Y-110102400D02*
X43014500Y-110102400D01*
%TO.N,Net-(D100-Pad1)*%
X69940900Y-50582900D02*
X71440200Y-49682100D01*
X75953900Y-44613600D02*
X71440200Y-49127300D01*
X71440200Y-49127300D02*
X71440200Y-49682100D01*
%TO.N,Net-(D101-Pad1)*%
X76946300Y-46951600D02*
X78755800Y-46183600D01*
X83701900Y-41860100D02*
X79378400Y-46183600D01*
X79378400Y-46183600D02*
X78755800Y-46183600D01*
%TO.N,Net-(D102-Pad1)*%
X84402100Y-44301700D02*
X86133800Y-43805200D01*
X91774300Y-40181900D02*
X89757100Y-40181900D01*
X89757100Y-40181900D02*
X86133800Y-43805200D01*
%TO.N,Net-(D103-Pad1)*%
X92127700Y-42697100D02*
X93709000Y-42474800D01*
X100000000Y-39618900D02*
X97144000Y-42474900D01*
X97144000Y-42474900D02*
X93709000Y-42474900D01*
X93709000Y-42474900D02*
X93709000Y-42474800D01*
%TO.N,Net-(D104-Pad1)*%
X100000000Y-42158900D02*
X101400000Y-42158900D01*
X108225700Y-40181900D02*
X103377000Y-40181900D01*
X103377000Y-40181900D02*
X101400000Y-42158900D01*
%TO.N,Net-(D106-Pad1)*%
X115597900Y-44301700D02*
X117329500Y-44798100D01*
X124046200Y-44613600D02*
X117514000Y-44613600D01*
X117514000Y-44613600D02*
X117329500Y-44798100D01*
%TO.N,Net-(D108-Pad1)*%
X130058900Y-50582900D02*
X131558200Y-51483700D01*
X131558200Y-51483700D02*
X133234300Y-53159800D01*
X133234300Y-53159800D02*
X138103200Y-53159800D01*
%TO.N,Net-(D110-Pad1)*%
X149332300Y-65183400D02*
X144668500Y-60519600D01*
X144668500Y-60519600D02*
X142272200Y-60519600D01*
%TO.N,Net-(D112-Pad1)*%
X151352400Y-73381600D02*
X152194500Y-75034400D01*
X158329700Y-73994700D02*
X153234200Y-73994700D01*
X153234200Y-73994700D02*
X152194500Y-75034400D01*
%TO.N,Net-(D115-Pad1)*%
X157706100Y-96054700D02*
X157810700Y-97549000D01*
X157810700Y-97549000D02*
X158999100Y-97549000D01*
X158999100Y-97549000D02*
X163452500Y-102002400D01*
X163452500Y-102002400D02*
X167818200Y-102002400D01*
X167818200Y-102002400D02*
X169814300Y-103998500D01*
X169814300Y-103998500D02*
X169814300Y-104134500D01*
%TO.N,Net-(D117-Pad1)*%
X166333300Y-111925500D02*
X166047400Y-113547400D01*
X166887500Y-120426300D02*
X166887500Y-114387500D01*
X166887500Y-114387500D02*
X166047400Y-113547400D01*
%TO.N,Net-(D124-Pad1)*%
X135983000Y-156987000D02*
X134521700Y-157900200D01*
X130067700Y-163143000D02*
X134521700Y-158689000D01*
X134521700Y-158689000D02*
X134521700Y-157900200D01*
%TO.N,Net-(D125-Pad1)*%
X128994300Y-160841000D02*
X127263700Y-161648000D01*
X122405500Y-166250800D02*
X127008400Y-161647900D01*
X127008400Y-161647900D02*
X127263600Y-161647900D01*
X127263600Y-161647900D02*
X127263700Y-161648000D01*
%TO.N,Net-(D127-Pad1)*%
X113880000Y-165951800D02*
X112219400Y-166304800D01*
X112219400Y-166304800D02*
X112219400Y-166304700D01*
X112219400Y-166304700D02*
X109563200Y-166304700D01*
X109563200Y-166304700D02*
X106207700Y-169660200D01*
%TO.N,Net-(D128-Pad1)*%
X105986300Y-167129800D02*
X104469600Y-167262600D01*
X97920900Y-169906200D02*
X101826000Y-169906200D01*
X101826000Y-169906200D02*
X104469600Y-167262600D01*
%TO.N,Net-(D129-Pad1)*%
X89684900Y-169171600D02*
X96205700Y-169171600D01*
X96205700Y-169171600D02*
X98009500Y-167367800D01*
%TO.N,Net-(D130-Pad1)*%
X90038300Y-166656400D02*
X88457100Y-166434100D01*
X81571600Y-167464700D02*
X87426600Y-167464700D01*
X87426600Y-167464700D02*
X88457100Y-166434200D01*
X88457100Y-166434200D02*
X88457100Y-166434100D01*
%TO.N,Net-(D131-Pad1)*%
X82229000Y-165011300D02*
X80514300Y-164551900D01*
X80514300Y-164551900D02*
X80255700Y-164810500D01*
X80255700Y-164810500D02*
X73717400Y-164810500D01*
%TO.N,Net-(D133-Pad1)*%
X67464000Y-159023200D02*
X65888400Y-158149800D01*
X61102000Y-162664900D02*
X64743700Y-159023200D01*
X64743700Y-159023200D02*
X65015000Y-159023200D01*
X65015000Y-159023200D02*
X65888400Y-158149800D01*
%TO.N,Net-(D134-Pad1)*%
X60715200Y-154763500D02*
X59403200Y-153810200D01*
X59403200Y-153810200D02*
X59403100Y-153810300D01*
X59403100Y-153810300D02*
X55002900Y-153810300D01*
X55002900Y-153810300D02*
X52801400Y-151608800D01*
%TO.N,Net-(D135-Pad1)*%
X54501000Y-149721200D02*
X53406100Y-148735400D01*
X47025700Y-145660200D02*
X50100900Y-148735400D01*
X50100900Y-148735400D02*
X53406100Y-148735400D01*
%TO.N,Net-(D136-Pad1)*%
X41994600Y-139070200D02*
X46918200Y-143993800D01*
X46918200Y-143993800D02*
X48942700Y-143993800D01*
%TO.N,Net-(D137-Pad1)*%
X44100400Y-137649800D02*
X43165400Y-136263600D01*
X37778600Y-131931600D02*
X42110700Y-136263700D01*
X42110700Y-136263700D02*
X43165300Y-136263700D01*
X43165300Y-136263700D02*
X43165400Y-136263600D01*
%TO.N,Net-(D140-Pad1)*%
X34486700Y-115821800D02*
X34063600Y-114124700D01*
X27472600Y-113606200D02*
X32271100Y-113606200D01*
X32271100Y-113606200D02*
X32789600Y-114124700D01*
X32789600Y-114124700D02*
X34063600Y-114124700D01*
%TO.N,Net-(D151-Pad1)*%
X67464000Y-40977000D02*
X69039600Y-40103600D01*
X69039600Y-40103600D02*
X69039600Y-39867600D01*
X69039600Y-39867600D02*
X73717400Y-35189800D01*
%TO.N,Net-(D152-Pad1)*%
X74669000Y-37544800D02*
X76491600Y-36808400D01*
X81571600Y-32535000D02*
X80765000Y-32535000D01*
X80765000Y-32535000D02*
X76491600Y-36808400D01*
%TO.N,Net-(D153-Pad1)*%
X82229000Y-34988400D02*
X83943700Y-34529000D01*
X83943700Y-34529000D02*
X85984200Y-34529000D01*
X85984200Y-34529000D02*
X89684900Y-30828300D01*
%TO.N,Net-(D155-Pad1)*%
X98009500Y-32632700D02*
X99457600Y-32582100D01*
X99457600Y-32582100D02*
X101700300Y-30339400D01*
X101700300Y-30339400D02*
X106207700Y-30339400D01*
%TO.N,Net-(D156-Pad1)*%
X114408000Y-31563600D02*
X107292500Y-31563600D01*
X107292500Y-31563600D02*
X105986300Y-32869800D01*
%TO.N,Net-(D157-Pad1)*%
X113880000Y-34048000D02*
X115540500Y-34400900D01*
X122405500Y-33749500D02*
X116191900Y-33749500D01*
X116191900Y-33749500D02*
X115540500Y-34400900D01*
%TO.N,Net-(D158-Pad1)*%
X121578500Y-36151100D02*
X123358100Y-36763900D01*
X130067700Y-36856900D02*
X129974700Y-36763900D01*
X129974700Y-36763900D02*
X123358100Y-36763900D01*
%TO.N,Net-(D159-Pad1)*%
X128994300Y-39158900D02*
X130725000Y-39965900D01*
X137329000Y-40858700D02*
X136436200Y-39965900D01*
X136436200Y-39965900D02*
X130725000Y-39965900D01*
%TO.N,Net-(D161-Pad1)*%
X142466800Y-47665700D02*
X143669100Y-48639400D01*
X149376900Y-45193800D02*
X146905000Y-47665700D01*
X146905000Y-47665700D02*
X144642800Y-47665700D01*
X144642800Y-47665700D02*
X143669100Y-48639400D01*
%TO.N,Net-(D162-Pad1)*%
X155594300Y-57568800D02*
X151077900Y-53052400D01*
X151077900Y-53052400D02*
X148355400Y-53052400D01*
%TO.N,Net-(D163-Pad1)*%
X153565700Y-59097400D02*
X154526700Y-60372600D01*
X154526700Y-60372600D02*
X156159400Y-60372600D01*
X156159400Y-60372600D02*
X160213600Y-64426800D01*
%TO.N,GND*%
X50101600Y-59986500D02*
X51066200Y-60885900D01*
X63738700Y-61222100D02*
X62281600Y-61222100D01*
X62281600Y-61222100D02*
X61220900Y-62282800D01*
X61220900Y-62282800D02*
X52463100Y-62282800D01*
X52463100Y-62282800D02*
X51066200Y-60885900D01*
X71860900Y-64873800D02*
X71106100Y-64119000D01*
X71106100Y-64119000D02*
X66871000Y-64119000D01*
X66871000Y-64119000D02*
X63974100Y-61222100D01*
X63974100Y-61222100D02*
X63738700Y-61222100D01*
X62897700Y-60145700D02*
X63738700Y-61222100D01*
X50101600Y-59986500D02*
X49137000Y-59087000D01*
X73068900Y-64119000D02*
X71860900Y-64873800D01*
X140445900Y-158008500D02*
X136604500Y-154167200D01*
X157722300Y-160762900D02*
X143691000Y-160762900D01*
X143691000Y-160762900D02*
X143625400Y-160697300D01*
X143625400Y-160697300D02*
X143134600Y-160697300D01*
X143134600Y-160697300D02*
X140445900Y-158008500D01*
X140445900Y-158008500D02*
X130392400Y-168062000D01*
X130392400Y-168062000D02*
X128599900Y-168062000D01*
X128599900Y-168062000D02*
X128599900Y-168061900D01*
X127195400Y-168545600D02*
X128599900Y-168061900D01*
X135865800Y-152937700D02*
X136604500Y-154167200D01*
X159242600Y-159242600D02*
X157722300Y-160762900D01*
X36769900Y-62005000D02*
X37555400Y-60840400D01*
X37555400Y-60840400D02*
X37555500Y-60840500D01*
X37555500Y-60840500D02*
X37934400Y-60840500D01*
X37934400Y-60840500D02*
X39207700Y-59567200D01*
X39207700Y-59567200D02*
X48656800Y-59567200D01*
X48656800Y-59567200D02*
X49137000Y-59087000D01*
X163965800Y-100699300D02*
X165300100Y-100792700D01*
X173337600Y-91831100D02*
X173407100Y-93157600D01*
X173407100Y-93157600D02*
X173407000Y-93157600D01*
X173407000Y-93157600D02*
X173337600Y-93227000D01*
X173337600Y-93227000D02*
X173337600Y-94260800D01*
X173337600Y-94260800D02*
X166899100Y-100699300D01*
X166899100Y-100699300D02*
X165393400Y-100699300D01*
X165393400Y-100699300D02*
X165300100Y-100792600D01*
X165300100Y-100792600D02*
X165300100Y-100792700D01*
X146875100Y-127504700D02*
X147645400Y-126318300D01*
X168965700Y-126216400D02*
X167589200Y-125603500D01*
X167589200Y-125603500D02*
X166927400Y-124941700D01*
X166927400Y-124941700D02*
X149438100Y-124941700D01*
X149438100Y-124941700D02*
X148061400Y-126318400D01*
X148061400Y-126318400D02*
X147645500Y-126318400D01*
X147645500Y-126318400D02*
X147645400Y-126318300D01*
X127351000Y-45990800D02*
X127956500Y-45990800D01*
X127956500Y-45990800D02*
X128380600Y-45566700D01*
X128380600Y-45566700D02*
X138286800Y-45566700D01*
X138286800Y-45566700D02*
X142400900Y-41452600D01*
X142400900Y-41452600D02*
X142601300Y-41452600D01*
X142601300Y-41452600D02*
X142601400Y-41452700D01*
X123823700Y-49518100D02*
X127351000Y-45990800D01*
X127351000Y-45990800D02*
X120191700Y-38831500D01*
X120191700Y-38831500D02*
X109059600Y-38831500D01*
X109059600Y-38831500D02*
X106689400Y-36461300D01*
X105327100Y-36269800D02*
X106689400Y-36461300D01*
X143455100Y-40398400D02*
X142601400Y-41452700D01*
X123136000Y-50811300D02*
X123823700Y-49518100D01*
X104705100Y-148460500D02*
X98969600Y-154196000D01*
X98969600Y-154196000D02*
X96848000Y-154196000D01*
X96848000Y-154196000D02*
X96631400Y-154412600D01*
X96631400Y-154412600D02*
X96631400Y-154412700D01*
X113985100Y-142487700D02*
X110971000Y-145501800D01*
X110971000Y-145501800D02*
X107663800Y-145501800D01*
X107663800Y-145501800D02*
X104705100Y-148460500D01*
X104705100Y-148460500D02*
X107744600Y-151500100D01*
X107744600Y-151500100D02*
X120251500Y-151500100D01*
X120251500Y-151500100D02*
X120362400Y-151389200D01*
X120362400Y-151389200D02*
X127686900Y-151389200D01*
X127686900Y-151389200D02*
X129319700Y-153022000D01*
X129319700Y-153022000D02*
X133982000Y-153022000D01*
X133982000Y-153022000D02*
X134636300Y-153676300D01*
X135865800Y-152937700D02*
X134636300Y-153676300D01*
X115380200Y-142113900D02*
X113985100Y-142487700D01*
X95263100Y-154196000D02*
X96631400Y-154412700D01*
X48421700Y-117296800D02*
X49813400Y-116949800D01*
X60388700Y-121207100D02*
X59795700Y-119810100D01*
X59795700Y-119810100D02*
X58991700Y-119810100D01*
X58991700Y-119810100D02*
X56478400Y-117296800D01*
X56478400Y-117296800D02*
X50160300Y-117296800D01*
X50160300Y-117296800D02*
X49813400Y-116949900D01*
X49813400Y-116949900D02*
X49813400Y-116949800D01*
X38392100Y-117526700D02*
X39775800Y-117232600D01*
X48421700Y-117296800D02*
X47030000Y-117643800D01*
X47030000Y-117643800D02*
X47030000Y-117643700D01*
X47030000Y-117643700D02*
X46913000Y-117526700D01*
X46913000Y-117526700D02*
X40069900Y-117526700D01*
X40069900Y-117526700D02*
X39775800Y-117232600D01*
X78407100Y-160188700D02*
X77010100Y-159595700D01*
X38392100Y-117526700D02*
X37008500Y-117820800D01*
X105327100Y-36269800D02*
X103964700Y-36078300D01*
X131300400Y-67824600D02*
X132178100Y-68834100D01*
X154870300Y-67205300D02*
X153556100Y-67875000D01*
X153556100Y-67875000D02*
X152405600Y-69025500D01*
X152405600Y-69025500D02*
X132501300Y-69025500D01*
X132501300Y-69025500D02*
X132309900Y-68834100D01*
X132309900Y-68834100D02*
X132178100Y-68834100D01*
X67766600Y-166359100D02*
X68471800Y-165087000D01*
X68471800Y-165087000D02*
X69038700Y-165087000D01*
X69038700Y-165087000D02*
X73937000Y-160188700D01*
X73937000Y-160188700D02*
X76417100Y-160188700D01*
X76417100Y-160188700D02*
X77010100Y-159595700D01*
X29316000Y-120999800D02*
X30707700Y-120652800D01*
X30707700Y-120652800D02*
X30707700Y-120652900D01*
X30707700Y-120652900D02*
X34176400Y-120652900D01*
X34176400Y-120652900D02*
X37008500Y-117820800D01*
X85350500Y-27670900D02*
X86712800Y-27479400D01*
X86712800Y-27479400D02*
X86712800Y-27479500D01*
X86712800Y-27479500D02*
X86904200Y-27670900D01*
X86904200Y-27670900D02*
X89961800Y-27670900D01*
X89961800Y-27670900D02*
X98369200Y-36078300D01*
X98369200Y-36078300D02*
X103964700Y-36078300D01*
%TD*%
M02*
