M48
; DRILL file {KiCad 5.1.9-73d0e3b20d~88~ubuntu20.10.1} date Wed Jun  2 15:00:04 2021
; FORMAT={-:-/ absolute / inch / decimal}
; #@! TF.CreationDate,2021-06-02T15:00:04-07:00
; #@! TF.GenerationSoftware,Kicad,Pcbnew,5.1.9-73d0e3b20d~88~ubuntu20.10.1
; #@! TF.FileFunction,Plated,1,2,PTH
FMAT,2
INCH
T1C0.0315
T2C0.0354
T3C0.0394
%
G90
G05
T1
X1.0816Y-4.4727
X1.1542Y-4.7638
X1.4476Y-2.4411
X1.4491Y-4.3336
X1.5115Y-4.627
X1.6154Y-2.1924
X1.8338Y-4.3269
X1.9064Y-4.618
X1.9725Y-2.3617
X2.1771Y-2.1423
X2.2603Y-4.4958
X2.3775Y-4.7719
X2.4056Y-6.4041
X2.4763Y-2.3679
X2.668Y-6.5496
X2.7127Y-2.1832
X2.8107Y-6.1894
X2.8767Y-2.5244
X3.0869Y-6.3066
X3.1311Y-2.3654
X3.3603Y-1.0894
X3.4542Y-6.0238
X3.6573Y-1.0477
X3.7505Y-6.0707
X4.1467Y-1.4279
X4.2527Y-5.6727
X4.4438Y-1.4697
X4.5425Y-5.595
X4.724Y-6.7333
X4.8479Y-2.0004
X5.0077Y-6.6357
X5.0919Y-6.1757
X5.1128Y-2.1413
X5.1693Y-2.6703
X5.349Y-6.0212
X5.3661Y-2.8967
X5.6191Y-5.2715
X5.6478Y-1.5905
X5.7825Y-5.0199
X5.881Y-1.7793
X6.0973Y-2.6459
X6.2335Y-2.9132
X6.4344Y-4.2638
X6.4553Y-3.9645
X6.5302Y-5.2432
X6.6522Y-4.9691
X6.8243Y-3.6154
X6.84Y-3.915
T2
X1.1836Y-3.937
X1.2029Y-3.6112
X1.2029Y-4.2628
X1.2607Y-3.2899
X1.2607Y-4.5841
X1.2836Y-3.937
X1.3022Y-3.6234
X1.3022Y-4.2506
X1.3558Y-2.9786
X1.3558Y-4.8954
X1.3577Y-3.3141
X1.3577Y-4.5599
X1.4498Y-3.0128
X1.4498Y-4.8612
X1.4873Y-2.6799
X1.4873Y-5.1942
X1.5653Y-3.7747
X1.5653Y-4.0993
X1.5764Y-2.7253
X1.5764Y-5.1488
X1.6096Y-3.4531
X1.6096Y-4.4209
X1.6533Y-2.3988
X1.6533Y-5.4752
X1.6651Y-3.7817
X1.6651Y-4.0923
X1.6972Y-3.1406
X1.6972Y-4.7334
X1.7074Y-3.4739
X1.7074Y-4.4001
X1.7362Y-2.4547
X1.7362Y-5.4193
X1.7912Y-3.1748
X1.7912Y-4.6992
X1.8262Y-2.8436
X1.8262Y-5.0304
X1.8514Y-2.1394
X1.8514Y-5.7347
X1.9153Y-2.889
X1.9153Y-4.985
X1.9269Y-2.205
X1.9269Y-5.669
X1.9429Y-3.7715
X1.9429Y-4.1025
X1.9948Y-2.5663
X1.9948Y-5.3077
X1.9972Y-3.446
X1.9972Y-4.428
X2.0425Y-3.7803
X2.0425Y-4.0938
X2.0767Y-2.6236
X2.0767Y-5.2504
X2.0788Y-1.9052
X2.0788Y-5.9689
X2.0942Y-3.4702
X2.0942Y-4.4038
X2.1046Y-3.133
X2.1046Y-4.741
X2.1457Y-1.9795
X2.1457Y-5.8945
X2.196Y-3.1736
X2.196Y-4.7004
X2.1996Y-2.3145
X2.1996Y-5.5595
X2.2618Y-2.8427
X2.2618Y-5.0313
X2.2728Y-2.3827
X2.2728Y-5.4913
X2.3122Y-3.937
X2.3316Y-1.7001
X2.3316Y-6.174
X2.3455Y-3.6096
X2.3455Y-4.2644
X2.3456Y-2.8971
X2.3456Y-4.9769
X2.3904Y-1.781
X2.3904Y-6.0931
X2.4122Y-3.937
X2.4369Y-2.0929
X2.4369Y-5.7811
X2.4433Y-3.6304
X2.4433Y-4.2436
X2.4438Y-3.2964
X2.4438Y-4.5776
X2.465Y-2.5815
X2.465Y-5.2925
X2.4998Y-2.1706
X2.4998Y-5.7034
X2.5359Y-3.3355
X2.5359Y-4.5385
X2.5382Y-2.6497
X2.5382Y-5.2243
X2.6035Y-3.0087
X2.6035Y-4.8653
X2.6076Y-1.5258
X2.6076Y-6.3482
X2.6561Y-1.6133
X2.6561Y-6.2608
X2.6854Y-3.0661
X2.6854Y-4.808
X2.7021Y-1.9057
X2.7021Y-5.9683
X2.7079Y-2.358
X2.7079Y-5.516
X2.7536Y-1.9915
X2.7536Y-5.8826
X2.7695Y-2.4368
X2.7695Y-5.4372
X2.8173Y-2.7596
X2.8173Y-5.1144
X2.8868Y-2.8316
X2.8868Y-5.0425
X2.9023Y-1.3854
X2.9023Y-6.4886
X2.9397Y-1.4781
X2.9397Y-6.3959
X2.985Y-2.177
X2.985Y-5.697
X2.9903Y-1.7564
X2.9903Y-6.1176
X3.0294Y-1.8485
X3.0294Y-6.0255
X3.0319Y-2.2653
X3.0319Y-5.6087
X3.0775Y-2.5582
X3.0775Y-5.3159
X3.1305Y-2.643
X3.1305Y-5.2311
X3.2115Y-1.2809
X3.2115Y-6.5931
X3.2374Y-1.3775
X3.2374Y-6.4965
X3.2872Y-2.0444
X3.2872Y-5.8296
X3.2954Y-1.648
X3.2954Y-6.226
X3.3198Y-2.139
X3.3198Y-5.735
X3.3229Y-1.7442
X3.3229Y-6.1299
X3.373Y-2.4132
X3.373Y-5.4608
X3.4072Y-2.5072
X3.4072Y-5.3668
X3.5309Y-1.2137
X3.5309Y-6.6603
X3.5448Y-1.3127
X3.5448Y-6.5613
X3.6081Y-1.9632
X3.6081Y-5.9108
X3.6132Y-1.582
X3.6132Y-6.2921
X3.6237Y-2.062
X3.6237Y-5.812
X3.6271Y-1.681
X3.6271Y-6.193
X3.6907Y-2.331
X3.6907Y-5.543
X3.7064Y-2.4298
X3.7064Y-5.4443
X3.8552Y-1.1848
X3.8552Y-6.6892
X3.8586Y-1.2848
X3.8586Y-6.5893
X3.937Y-1.5598
X3.937Y-1.6598
X3.937Y-1.936
X3.937Y-2.036
X3.937Y-5.838
X3.937Y-5.938
X3.937Y-6.2142
X3.937Y-6.3142
X4.0142Y-2.4142
X4.0142Y-5.4599
X4.0194Y-2.3143
X4.0194Y-5.5597
X4.1727Y-1.2941
X4.1727Y-6.5799
X4.1814Y-1.1945
X4.1814Y-6.6795
X4.2469Y-1.681
X4.2469Y-6.193
X4.2503Y-2.062
X4.2503Y-5.812
X4.2609Y-1.582
X4.2609Y-6.2921
X4.266Y-1.9632
X4.266Y-5.9108
X4.3188Y-2.4608
X4.3188Y-5.4132
X4.3447Y-2.3642
X4.3447Y-5.5098
X4.4835Y-1.3405
X4.4835Y-6.5335
X4.5043Y-1.2427
X4.5043Y-6.6313
X4.5511Y-1.7442
X4.5511Y-6.1299
X4.5542Y-2.139
X4.5542Y-5.735
X4.5787Y-1.648
X4.5787Y-6.226
X4.5868Y-2.0444
X4.5868Y-5.8296
X4.6086Y-2.5681
X4.6086Y-5.3059
X4.6525Y-2.4782
X4.6525Y-5.3958
X4.7866Y-1.4233
X4.7866Y-6.4508
X4.8191Y-1.3287
X4.8191Y-6.5453
X4.8421Y-2.2653
X4.8421Y-5.6087
X4.8446Y-1.8485
X4.8446Y-6.0255
X4.8702Y-2.7311
X4.8702Y-5.1429
X4.8837Y-1.7564
X4.8837Y-6.1176
X4.8891Y-2.177
X4.8891Y-5.697
X4.9317Y-2.6523
X4.9317Y-5.2217
X5.0785Y-1.5417
X5.0785Y-6.3323
X5.0942Y-2.944
X5.0942Y-4.93
X5.1046Y-2.4368
X5.1046Y-5.4372
X5.1204Y-1.9915
X5.1204Y-5.8826
X5.1208Y-1.4511
X5.1208Y-6.423
X5.1661Y-2.358
X5.1661Y-5.516
X5.1696Y-2.8784
X5.1696Y-4.9956
X5.1719Y-1.9057
X5.1719Y-5.9683
X5.2702Y-3.197
X5.2702Y-4.677
X5.3358Y-2.6497
X5.3358Y-5.2243
X5.3537Y-1.6934
X5.3537Y-6.1806
X5.3577Y-3.1485
X5.3577Y-4.7255
X5.3742Y-2.1706
X5.3742Y-5.7034
X5.3918Y-3.4802
X5.3918Y-4.3938
X5.4067Y-1.6086
X5.4067Y-6.2654
X5.409Y-2.5815
X5.409Y-5.2925
X5.4371Y-2.0929
X5.4371Y-5.7811
X5.454Y-3.7829
X5.454Y-4.0911
X5.4874Y-3.451
X5.4874Y-4.4231
X5.5284Y-2.8971
X5.5284Y-4.9769
X5.5535Y-3.7725
X5.5535Y-4.1016
X5.6013Y-2.3827
X5.6013Y-5.4913
X5.6089Y-1.8766
X5.6089Y-5.9974
X5.6122Y-2.8427
X5.6122Y-5.0313
X5.6719Y-1.7989
X5.6719Y-6.0751
X5.6744Y-2.3145
X5.6744Y-5.5595
X5.678Y-3.1736
X5.678Y-4.7004
X5.7694Y-3.133
X5.7694Y-4.741
X5.7798Y-3.4702
X5.7798Y-4.4038
X5.7973Y-2.6236
X5.7973Y-5.2504
X5.8315Y-3.7803
X5.8315Y-4.0938
X5.8408Y-2.0887
X5.8408Y-5.7853
X5.8768Y-3.446
X5.8768Y-4.428
X5.8792Y-2.5663
X5.8792Y-5.3077
X5.9127Y-2.0192
X5.9127Y-5.8548
X5.9311Y-3.7715
X5.9311Y-4.1025
X5.9588Y-2.889
X5.9588Y-4.985
X6.0459Y-2.3267
X6.0459Y-5.5474
X6.0479Y-2.8436
X6.0479Y-5.0304
X6.0829Y-3.1748
X6.0829Y-4.6992
X6.1258Y-2.2665
X6.1258Y-5.6075
X6.1666Y-3.4739
X6.1666Y-4.4001
X6.1768Y-3.1406
X6.1768Y-4.7334
X6.2089Y-3.7817
X6.2089Y-4.0923
X6.2219Y-2.588
X6.2219Y-5.286
X6.2645Y-3.4531
X6.2645Y-4.4209
X6.3076Y-2.5365
X6.3076Y-5.3375
X6.3087Y-3.7747
X6.3087Y-4.0993
X6.3653Y-2.8675
X6.3653Y-5.0065
X6.4567Y-2.8269
X6.4567Y-5.0471
X6.4747Y-3.1621
X6.4747Y-4.712
X6.5486Y-3.4675
X6.5486Y-4.4065
X6.5704Y-3.1328
X6.5704Y-4.7412
X6.5857Y-3.7795
X6.5857Y-4.0945
X6.647Y-3.4501
X6.647Y-4.4239
X6.6856Y-3.7742
X6.6856Y-4.0998
T3
G00X6.0745Y-6.1302
M15
G01X6.1302Y-6.0745
M16
G05
G00X6.1511Y-6.4016
M15
G01X6.1928Y-6.4434
M16
G05
G00X6.2513Y-6.2875
M15
G01X6.2875Y-6.2513
M16
G05
G00X6.4016Y-6.1511
M15
G01X6.4434Y-6.1928
M16
G05
T0
M30
